<svg xmlns="http://www.w3.org/2000/svg" xmlns:xlink="http://www.w3.org/1999/xlink" width="110" height="110" viewBox="0 0 110 110">
  <defs>
    <clipPath id="clip-AppMe-Admin-Platform-Icon-Repartidores-Activos">
      <rect width="110" height="110"/>
    </clipPath>
  </defs>
  <g id="AppMe-Admin-Platform-Icon-Repartidores-Activos" clip-path="url(#clip-AppMe-Admin-Platform-Icon-Repartidores-Activos)">
    <g id="_888520" data-name="888520" transform="translate(11.872 31)">
      <g id="Grupo_1793" data-name="Grupo 1793" transform="translate(18.704 0)">
        <g id="Grupo_1792" data-name="Grupo 1792">
          <path id="Trazado_3160" data-name="Trazado 3160" d="M134.477,123.09v-6.723h4.074a1.358,1.358,0,0,0,1.358-1.358V106.86a1.358,1.358,0,0,0-1.358-1.358h-4.074a9.518,9.518,0,0,0-9.507-9.507,1.34,1.34,0,0,0-1.307,1.1,4.075,4.075,0,1,0-.052,5.987v4.572l-5.035,5.035a1.358,1.358,0,0,0-.4.96v10.865H104.6v-8.149a1.358,1.358,0,0,0-.489-1.043l-5.267-4.39h4.4a1.358,1.358,0,0,0,1.358-1.358V106.86a6.8,6.8,0,0,0-6.791-6.791H78.791A6.8,6.8,0,0,0,72,106.86v2.716a1.358,1.358,0,0,0,1.358,1.358h4.4l-5.267,4.39A1.358,1.358,0,0,0,72,116.367v17.656a1.358,1.358,0,0,0,1.358,1.358h4.168a10.856,10.856,0,0,0,21.544,0h17.844a10.856,10.856,0,0,0,21.544,0h1.452a1.358,1.358,0,0,0,1.358-1.358A12.224,12.224,0,0,0,134.477,123.09Zm0-14.872h2.716v5.433h-2.716Zm-13.582-6.791a1.358,1.358,0,1,1,1.358-1.358A1.358,1.358,0,0,1,120.895,101.427Zm-31.238,1.358h8.149a4.074,4.074,0,0,1,4.075,4.075v1.358H89.656Zm-14.94,5.433V106.86a4.075,4.075,0,0,1,4.075-4.075H86.94v5.433ZM88.3,142.173a8.157,8.157,0,0,1-8.027-6.791h2.787a5.407,5.407,0,0,0,10.48,0h2.787A8.157,8.157,0,0,1,88.3,142.173Zm-2.339-6.791h4.678a2.693,2.693,0,0,1-4.678,0Zm15.921-2.716H74.716V117L82,110.935H94.6L101.88,117Zm12.3,0H104.6v-5.433h11.574A12.131,12.131,0,0,0,114.184,132.666Zm12.144-33.819a6.8,6.8,0,0,1,5.433,6.655v1.358h-5.433Zm-5.433,15.367,4.637-4.637h6.229v12.539a12.179,12.179,0,0,0-2.716-.315h-2.716a12.133,12.133,0,0,0-5.433,1.29Zm6.791,27.96a8.157,8.157,0,0,1-8.027-6.791h2.787a5.407,5.407,0,0,0,10.48,0h2.787A8.157,8.157,0,0,1,127.686,142.173Zm-2.339-6.791h4.678a2.693,2.693,0,0,1-4.678,0Zm-8.43-2.716a9.522,9.522,0,0,1,9.411-8.149h2.716a9.522,9.522,0,0,1,9.411,8.149Z" transform="translate(-72 -95.992)" fill="#49b065" stroke="#daeedf" stroke-width="0.2"/>
        </g>
      </g>
      <g id="Grupo_1795" data-name="Grupo 1795" transform="translate(0 35.315)">
        <g id="Grupo_1794" data-name="Grupo 1794">
          <rect id="Rectángulo_1410" data-name="Rectángulo 1410" width="15.988" height="2.716" fill="#49b065" stroke="#daeedf" stroke-width="0.2"/>
        </g>
      </g>
      <g id="Grupo_1797" data-name="Grupo 1797" transform="translate(5.645 29.882)">
        <g id="Grupo_1796" data-name="Grupo 1796">
          <rect id="Rectángulo_1411" data-name="Rectángulo 1411" width="10.343" height="2.716" fill="#49b065" stroke="#daeedf" stroke-width="0.2"/>
        </g>
      </g>
      <g id="Grupo_1802" data-name="Grupo 1802" transform="translate(8.911 24.45)">
        <g id="Grupo_1796-2" data-name="Grupo 1796">
          <rect id="Rectángulo_1411-2" data-name="Rectángulo 1411" width="7.077" height="2.716" fill="#49b065" stroke="#daeedf" stroke-width="0.2"/>
        </g>
      </g>
      <g id="Grupo_1799" data-name="Grupo 1799" transform="translate(30.928 21.733)">
        <g id="Grupo_1798" data-name="Grupo 1798" transform="translate(0 0)">
          <rect id="Rectángulo_1412" data-name="Rectángulo 1412" width="8.149" height="2.716" fill="#49b065" stroke="#daeedf" stroke-width="0.2"/>
        </g>
      </g>
      <g id="Grupo_1801" data-name="Grupo 1801" transform="translate(30.928 28.524)">
        <g id="Grupo_1800" data-name="Grupo 1800" transform="translate(0 0)">
          <rect id="Rectángulo_1413" data-name="Rectángulo 1413" width="8.149" height="2.716" fill="#49b065" stroke="#daeedf" stroke-width="0.2"/>
        </g>
      </g>
    </g>
  </g>
</svg>
