<svg xmlns="http://www.w3.org/2000/svg" xmlns:xlink="http://www.w3.org/1999/xlink" width="110" height="110" viewBox="0 0 110 110">
  <defs>
    <clipPath id="clip-AppMe-Admin-Platform-Icon-Telefono-Usuario">
      <rect width="110" height="110"/>
    </clipPath>
  </defs>
  <g id="AppMe-Admin-Platform-Icon-Telefono-Usuario" clip-path="url(#clip-AppMe-Admin-Platform-Icon-Telefono-Usuario)">
    <g id="_2983781" data-name="2983781" transform="translate(33.17 26.549)">
      <path id="Trazado_1728" data-name="Trazado 1728" d="M98.69,27.6l-8.256-8.256V5.127A5.133,5.133,0,0,0,85.307,0H62.974a5.133,5.133,0,0,0-5.127,5.127V53.211a5.133,5.133,0,0,0,5.127,5.127H97.841a1.709,1.709,0,0,0,1.676-1.373L102.7,41.111A14.89,14.89,0,0,0,98.69,27.6ZM62.974,3.418H85.307a1.711,1.711,0,0,1,1.709,1.709V27.173a5.355,5.355,0,0,0-7.56,7.587L86,41.566a14.516,14.516,0,0,0-4.578,5.948H61.265V5.127A1.711,1.711,0,0,1,62.974,3.418ZM61.265,53.211V50.932H80.32a24.446,24.446,0,0,0-.547,3.988h-16.8A1.711,1.711,0,0,1,61.265,53.211ZM99.35,40.438,96.441,54.92H83.2a15.683,15.683,0,0,1,3.059-8.869,8.673,8.673,0,0,1,3.076-2.523,1.692,1.692,0,0,0,.623-2.782l-8.071-8.39a1.937,1.937,0,0,1,2.734-2.744c3.613,3.7,1.856,1.922,8.179,8.245a1.709,1.709,0,0,0,2.417-2.417l-4.782-4.782V24.18l5.839,5.839A11.48,11.48,0,0,1,99.35,40.438Z" transform="translate(-57.847)" fill="#aab5c7"/>
    </g>
  </g>
</svg>
