<svg xmlns="http://www.w3.org/2000/svg" xmlns:xlink="http://www.w3.org/1999/xlink" width="110" height="110" viewBox="0 0 110 110">
  <defs>
    <clipPath id="clip-AppMe-Admin-Platform-Icon-Dashboard-2_1">
      <rect width="110" height="110"/>
    </clipPath>
  </defs>
  <g id="AppMe-Admin-Platform-Icon-Dashboard-2_1" data-name="AppMe-Admin-Platform-Icon-Dashboard-2 – 1" clip-path="url(#clip-AppMe-Admin-Platform-Icon-Dashboard-2_1)">
    <g id="Document" transform="translate(16.685 16.685)">
      <path id="Trazado_12203" data-name="Trazado 12203" d="M75.978,2H26.659a3.905,3.905,0,0,0-3.894,3.894V20.17H3.3a1.3,1.3,0,0,0-1.3,1.3V73.382a1.3,1.3,0,0,0,1.3,1.3H22.766v1.3a3.905,3.905,0,0,0,3.894,3.894H75.978a3.905,3.905,0,0,0,3.894-3.894V5.894A3.905,3.905,0,0,0,75.978,2ZM7.191,72.084H4.6V22.766h2.6Zm2.6,0V22.766H38.34V72.084Zm67.489,3.894a1.3,1.3,0,0,1-1.3,1.3H26.659a1.3,1.3,0,0,1-1.3-1.3v-1.3H39.638a1.3,1.3,0,0,0,1.3-1.3V21.468a1.3,1.3,0,0,0-1.3-1.3H25.361V5.894a1.3,1.3,0,0,1,1.3-1.3H75.978a1.3,1.3,0,0,1,1.3,1.3Z" transform="translate(-2 -2)" fill="#49b166"/>
      <path id="Trazado_12204" data-name="Trazado 12204" d="M60.334,40.238a1.3,1.3,0,0,0-1.835,0L48.4,50.333l-4.589-4.588a1.3,1.3,0,0,0-1.835,0l-3.67,3.67a1.3,1.3,0,0,0,0,1.835l9.177,9.177a1.3,1.3,0,0,0,1.835,0L64.005,45.745a1.3,1.3,0,0,0,0-1.836ZM48.4,57.675l-7.342-7.342L42.9,48.5l4.589,4.588a1.3,1.3,0,0,0,1.835,0L59.416,42.991l1.836,1.836Z" transform="translate(8.702 9.276)" fill="#49b166"/>
      <path id="Trazado_12205" data-name="Trazado 12205" d="M65.531,14.489V9.3a1.3,1.3,0,0,0-1.3-1.3H25.3A1.3,1.3,0,0,0,24,9.3v5.191a1.3,1.3,0,0,0,1.3,1.3H64.234A1.3,1.3,0,0,0,65.531,14.489Zm-2.6-1.3H26.6V10.6h36.34Z" transform="translate(4.553 -0.213)" fill="#49b166"/>
      <path id="Trazado_12206" data-name="Trazado 12206" d="M38,18h5.191v2.6H38Z" transform="translate(8.723 2.766)" fill="#49b166"/>
      <path id="Trazado_12207" data-name="Trazado 12207" d="M44,18H59.574v2.6H44Z" transform="translate(10.51 2.766)" fill="#49b166"/>
      <path id="Trazado_12208" data-name="Trazado 12208" d="M38,24h5.191v2.6H38Z" transform="translate(8.723 4.553)" fill="#49b166"/>
      <path id="Trazado_12209" data-name="Trazado 12209" d="M44,24H59.574v2.6H44Z" transform="translate(10.51 4.553)" fill="#49b166"/>
      <path id="Trazado_12210" data-name="Trazado 12210" d="M38,30h5.191v2.6H38Z" transform="translate(8.723 6.34)" fill="#49b166"/>
      <path id="Trazado_12211" data-name="Trazado 12211" d="M44,30H59.574v2.6H44Z" transform="translate(10.51 6.34)" fill="#49b166"/>
      <path id="Trazado_12212" data-name="Trazado 12212" d="M38,36h5.191v2.6H38Z" transform="translate(8.723 8.127)" fill="#49b166"/>
      <path id="Trazado_12213" data-name="Trazado 12213" d="M44,36H59.574v2.6H44Z" transform="translate(10.51 8.127)" fill="#49b166"/>
      <path id="Trazado_12214" data-name="Trazado 12214" d="M20.489,32a6.489,6.489,0,1,0,6.489,6.489A6.489,6.489,0,0,0,20.489,32Zm0,10.383a3.894,3.894,0,1,1,3.894-3.894A3.894,3.894,0,0,1,20.489,42.383Z" transform="translate(1.574 6.936)" fill="#49b166"/>
      <path id="Trazado_12215" data-name="Trazado 12215" d="M32.064,25.191A3.905,3.905,0,0,1,28.17,21.3a1.3,1.3,0,0,0-1.3-1.3H16.489a1.3,1.3,0,0,0-1.3,1.3A3.905,3.905,0,0,1,11.3,25.191a1.3,1.3,0,0,0-1.3,1.3V57.638a1.3,1.3,0,0,0,1.3,1.3,3.905,3.905,0,0,1,3.894,3.894,1.3,1.3,0,0,0,1.3,1.3H26.872a1.3,1.3,0,0,0,1.3-1.3,3.905,3.905,0,0,1,3.894-3.894,1.3,1.3,0,0,0,1.3-1.3V26.489A1.3,1.3,0,0,0,32.064,25.191Zm-1.3,31.278A6.5,6.5,0,0,0,25.7,61.531H17.657A6.5,6.5,0,0,0,12.6,56.47V27.657A6.5,6.5,0,0,0,17.657,22.6H25.7a6.5,6.5,0,0,0,5.062,5.062Z" transform="translate(0.383 3.361)" fill="#49b166"/>
    </g>
  </g>
</svg>
