<svg xmlns="http://www.w3.org/2000/svg" xmlns:xlink="http://www.w3.org/1999/xlink" width="110" height="110" viewBox="0 0 110 110">
  <defs>
    <clipPath id="clip-AppMe-Admin-Platform-Icon-Repartidores-1_1">
      <rect width="110" height="110"/>
    </clipPath>
  </defs>
  <g id="AppMe-Admin-Platform-Icon-Repartidores-1_1" data-name="AppMe-Admin-Platform-Icon-Repartidores-1 – 1" clip-path="url(#clip-AppMe-Admin-Platform-Icon-Repartidores-1_1)">
    <g id="Strongbox-safe_box-money-business" data-name="Strongbox-safe box-money-business" transform="translate(18.69 18.695)">
      <path id="Trazado_12216" data-name="Trazado 12216" d="M74.249,24.039H64.416a12.23,12.23,0,1,0-18.993-6.123H42.41v-4.9a1.225,1.225,0,0,0-1.225-1.225H19.144a1.225,1.225,0,0,0-1.225,1.225v4.9h-9.8A1.225,1.225,0,0,0,6.9,19.14v4.9H3.225A1.225,1.225,0,0,0,2,25.263V70.572A1.225,1.225,0,0,0,3.225,71.8H6.9v2.449A1.225,1.225,0,0,0,8.123,75.47h8.572a1.225,1.225,0,0,0,1.225-1.225V71.8H59.554v2.449a1.225,1.225,0,0,0,1.225,1.225h8.572a1.225,1.225,0,0,0,1.225-1.225V71.8h3.674a1.225,1.225,0,0,0,1.225-1.225V25.263A1.225,1.225,0,0,0,74.249,24.039ZM57.105,4.446a9.8,9.8,0,1,1-9.8,9.8,9.8,9.8,0,0,1,9.8-9.8ZM46.513,20.365a12.4,12.4,0,0,0,3.282,3.674H31.389V20.365ZM20.368,14.242H39.961v3.674H20.368ZM9.347,20.365H28.94v3.674H9.347ZM15.47,73.021H9.347V71.8H15.47Zm52.656,0H62V71.8h6.123Zm4.9-3.674H4.449V26.488H73.024Z" transform="translate(-2 -2.015)" fill="#49b166"/>
      <path id="Trazado_12217" data-name="Trazado 12217" d="M6,26.225V59.288a1.225,1.225,0,0,0,1.225,1.225H66a1.225,1.225,0,0,0,1.225-1.225V56.838h1.225a1.225,1.225,0,0,0,1.225-1.225V47.042a1.225,1.225,0,0,0-1.225-1.225H67.228V39.695h1.225a1.225,1.225,0,0,0,1.225-1.225V29.9a1.225,1.225,0,0,0-1.225-1.225H67.228V26.225A1.225,1.225,0,0,0,66,25H7.225A1.225,1.225,0,0,0,6,26.225ZM67.228,54.389H63.554V48.267h3.674Zm0-17.144H63.554V31.123h3.674Zm-58.779-9.8h56.33v1.225H62.33A1.225,1.225,0,0,0,61.105,29.9V38.47a1.225,1.225,0,0,0,1.225,1.225h2.449v6.123H62.33a1.225,1.225,0,0,0-1.225,1.225v8.572a1.225,1.225,0,0,0,1.225,1.225h2.449v1.225H8.449Z" transform="translate(-1.102 3.146)" fill="#49b166"/>
      <path id="Trazado_12218" data-name="Trazado 12218" d="M31.817,30H12.225A1.225,1.225,0,0,0,11,31.225V50.817a1.225,1.225,0,0,0,1.225,1.225H31.817a1.225,1.225,0,0,0,1.225-1.225V31.225A1.225,1.225,0,0,0,31.817,30ZM30.593,49.593H13.449V32.449H30.593Z" transform="translate(0.021 4.269)" fill="#49b166"/>
      <path id="Trazado_12219" data-name="Trazado 12219" d="M51.8,11.123V9.9a1.225,1.225,0,0,0-1.225-1.225h-4.9A1.225,1.225,0,0,0,44.449,9.9v1.225a1.225,1.225,0,0,0,1.225,1.225h4.9a3.685,3.685,0,0,1,3.674,3.674v1.225a3.685,3.685,0,0,1-3.674,3.674H49.347v1.225H46.9V20.919H45.674A3.685,3.685,0,0,1,42,17.246h2.449a1.225,1.225,0,0,0,1.225,1.225h4.9A1.225,1.225,0,0,0,51.8,17.246V16.021A1.225,1.225,0,0,0,50.572,14.8h-4.9A3.685,3.685,0,0,1,42,11.123V9.9a3.685,3.685,0,0,1,3.674-3.674H46.9V5h2.449V6.225h1.225A3.685,3.685,0,0,1,54.246,9.9v1.225Z" transform="translate(6.982 -1.345)" fill="#49b166"/>
      <path id="Trazado_12220" data-name="Trazado 12220" d="M15,34h2.449v2.449H15Z" transform="translate(0.919 5.167)" fill="#49b166"/>
      <path id="Trazado_12221" data-name="Trazado 12221" d="M19,34h2.449v2.449H19Z" transform="translate(1.817 5.167)" fill="#49b166"/>
      <path id="Trazado_12222" data-name="Trazado 12222" d="M23,34h2.449v2.449H23Z" transform="translate(2.716 5.167)" fill="#49b166"/>
      <path id="Trazado_12223" data-name="Trazado 12223" d="M15,38h2.449v2.449H15Z" transform="translate(0.919 6.066)" fill="#49b166"/>
      <path id="Trazado_12224" data-name="Trazado 12224" d="M19,38h2.449v2.449H19Z" transform="translate(1.817 6.066)" fill="#49b166"/>
      <path id="Trazado_12225" data-name="Trazado 12225" d="M23,38h2.449v2.449H23Z" transform="translate(2.716 6.066)" fill="#49b166"/>
      <path id="Trazado_12226" data-name="Trazado 12226" d="M15,42h2.449v2.449H15Z" transform="translate(0.919 6.964)" fill="#49b166"/>
      <path id="Trazado_12227" data-name="Trazado 12227" d="M19,42h2.449v2.449H19Z" transform="translate(1.817 6.964)" fill="#49b166"/>
      <path id="Trazado_12228" data-name="Trazado 12228" d="M23,42h2.449v2.449H23Z" transform="translate(2.716 6.964)" fill="#49b166"/>
    </g>
  </g>
</svg>
