<svg xmlns="http://www.w3.org/2000/svg" xmlns:xlink="http://www.w3.org/1999/xlink" width="110" height="110" viewBox="0 0 110 110">
  <defs>
    <clipPath id="clip-AppMe-Admin-Platform-Icon-MasVendidos-2">
      <rect width="110" height="110"/>
    </clipPath>
  </defs>
  <g id="AppMe-Admin-Platform-Icon-MasVendidos-2" clip-path="url(#clip-AppMe-Admin-Platform-Icon-MasVendidos-2)">
    <g id="_857975" data-name="857975" transform="translate(14.957 14.956)">
      <g id="Grupo_18748" data-name="Grupo 18748" transform="translate(0.001 0.002)">
        <g id="Grupo_18747" data-name="Grupo 18747" transform="translate(0 0)">
          <path id="Trazado_12183" data-name="Trazado 12183" d="M80.892,66.856,71.012,52.03l1.732-.541a1.352,1.352,0,0,0,.888-1.694q-.014-.044-.03-.087L70.563,41.9l6.187-5.753a1.352,1.352,0,0,0,.069-1.911c-.022-.024-.045-.046-.069-.069l-6.187-5.751L73.6,20.6a1.352,1.352,0,0,0-.77-1.75q-.043-.017-.087-.03l-8.133-2.536L63.9,7.941a1.36,1.36,0,0,0-.5-.946,1.341,1.341,0,0,0-1.029-.283L53.9,7.884,49.569.659A1.352,1.352,0,0,0,47.714.194l-.049.031L40.56,4.9,33.457.225A1.352,1.352,0,0,0,31.584.61l-.031.049L27.219,7.887,18.756,6.715a1.352,1.352,0,0,0-1.525,1.153c0,.024-.006.048-.008.072l-.712,8.342L8.383,18.818A1.352,1.352,0,0,0,7.5,20.511q.014.044.03.087l3.038,7.813L4.371,34.164A1.352,1.352,0,0,0,4.3,36.074c.022.024.045.046.069.069l6.187,5.751L7.518,49.707a1.352,1.352,0,0,0,.77,1.75q.043.017.087.03l1.794.558L.2,68.244A1.352,1.352,0,0,0,1.6,70.283l13.564-2.466L17.6,80.039A1.352,1.352,0,0,0,18.666,81.1a1.338,1.338,0,0,0,.262.02,1.352,1.352,0,0,0,1.125-.6l9.485-14.228,2.013,3.357a1.352,1.352,0,0,0,.86.623,1.33,1.33,0,0,0,.307.034,1.351,1.351,0,0,0,.744-.223l7.1-4.676,7.1,4.676a1.352,1.352,0,0,0,1.873-.385l.031-.049,2.014-3.358,9.485,14.229a1.352,1.352,0,0,0,1.125.6,1.326,1.326,0,0,0,.262-.026,1.352,1.352,0,0,0,1.063-1.061L65.977,67.7l13.668,1.248a1.352,1.352,0,0,0,1.247-2.1ZM19.618,76.3,17.55,65.978a1.352,1.352,0,0,0-1.567-1.065L4.092,67.076l8.74-14.2,3.676,1.146.711,8.342a1.352,1.352,0,0,0,1.533,1.229l8.465-1.172L28,63.729ZM52.043,60.269l-4.069,6.784-6.669-4.4a1.352,1.352,0,0,0-1.487,0l-6.671,4.391-4.069-6.786a1.352,1.352,0,0,0-1.159-.657,1.253,1.253,0,0,0-.187.014l-7.937,1.1-.668-7.827a1.352,1.352,0,0,0-.946-1.176l-7.616-2.377L13.4,42.02a1.352,1.352,0,0,0-.339-1.48L7.278,35.153l5.793-5.386a1.352,1.352,0,0,0,.339-1.48l-2.839-7.32,7.618-2.375a1.352,1.352,0,0,0,.946-1.176L19.8,9.589l7.937,1.1a1.352,1.352,0,0,0,1.352-.645l4.069-6.784L39.817,7.65a1.352,1.352,0,0,0,1.487,0l6.671-4.391,4.069,6.786a1.361,1.361,0,0,0,1.345.644l7.937-1.1.668,7.827a1.352,1.352,0,0,0,.946,1.176l7.618,2.377-2.847,7.317a1.352,1.352,0,0,0,.339,1.48l5.792,5.386L68.05,40.54a1.352,1.352,0,0,0-.339,1.48l2.839,7.32-7.612,2.375a1.352,1.352,0,0,0-.946,1.176l-.668,7.827-7.936-1.094A1.361,1.361,0,0,0,52.043,60.269ZM65.018,64.9a1.371,1.371,0,0,0-1.447,1.082L61.506,76.3,53.124,63.725l.781-1.3,8.463,1.172a1.352,1.352,0,0,0,1.525-1.153c0-.024.006-.048.008-.072l.712-8.342,3.711-1.157L77.074,66Z" transform="translate(-0.001 -0.002)" fill="#f5f7f9" stroke="#f5f7f9" stroke-width="0.3"/>
        </g>
      </g>
      <g id="Grupo_18750" data-name="Grupo 18750" transform="translate(20.281 12.17)">
        <g id="Grupo_18749" data-name="Grupo 18749">
          <path id="Trazado_12184" data-name="Trazado 12184" d="M160.563,88.227a4.056,4.056,0,0,0-4.056-4.056h-9.464V78.763A6.753,6.753,0,0,0,140.3,72h-.014a1.352,1.352,0,0,0-1.352,1.352V79.8L136.5,84.652l-4.351,3.481a1.342,1.342,0,0,0-1.328-1.259h-9.464A1.352,1.352,0,0,0,120,88.227v20.28a1.352,1.352,0,0,0,1.352,1.352h9.464a1.352,1.352,0,0,0,1.352-1.352h20.28a4.076,4.076,0,0,0,4.056-4.056,4.009,4.009,0,0,0-.541-1.985,3.785,3.785,0,0,0,.687-.549,3.983,3.983,0,0,0,.665-4.859,3.784,3.784,0,0,0,.687-.549,3.983,3.983,0,0,0,.665-4.859,3.783,3.783,0,0,0,.687-.549A3.98,3.98,0,0,0,160.563,88.227Zm-31.1,18.928h-6.76V89.579h6.76Zm27.978-17.965a1.294,1.294,0,0,1-.938.389H151.1v2.7h4.056a1.352,1.352,0,0,1,1.352,1.352,1.316,1.316,0,0,1-.414.963,1.294,1.294,0,0,1-.938.389h-5.408v2.7H153.8a1.352,1.352,0,0,1,1.352,1.352,1.316,1.316,0,0,1-.414.963,1.294,1.294,0,0,1-.938.389H148.4v2.7h4.056a1.352,1.352,0,0,1,1.352,1.352,1.316,1.316,0,0,1-.414.963,1.294,1.294,0,0,1-.938.389h-20.28V91.58l6.253-5a1.36,1.36,0,0,0,.365-.452l2.7-5.408a1.351,1.351,0,0,0,.142-.6V74.938a4.042,4.042,0,0,1,2.7,3.825v6.76a1.352,1.352,0,0,0,1.352,1.352h10.816a1.352,1.352,0,0,1,1.352,1.352A1.316,1.316,0,0,1,157.445,89.189Z" transform="translate(-120.004 -72.003)" fill="#f5f7f9" stroke="#f5f7f9" stroke-width="0.3"/>
        </g>
      </g>
    </g>
  </g>
</svg>
