<svg xmlns="http://www.w3.org/2000/svg" xmlns:xlink="http://www.w3.org/1999/xlink" width="110" height="110" viewBox="0 0 110 110">
  <defs>
    <clipPath id="clip-AppMe-Admin-Platform-Icon-Promociones-1">
      <rect width="110" height="110"/>
    </clipPath>
  </defs>
  <g id="AppMe-Admin-Platform-Icon-Promociones-1" clip-path="url(#clip-AppMe-Admin-Platform-Icon-Promociones-1)">
    <g id="Grupo_18995" data-name="Grupo 18995" transform="translate(-114.878 -114.919)">
      <path id="Trazado_435" data-name="Trazado 435" d="M277.341,252.648c-4.519,0-8.2,4.282-8.2,9.544s3.676,9.548,8.2,9.548,8.2-4.283,8.2-9.548S281.86,252.648,277.341,252.648Zm0,14.017c-1.692,0-3.121-2.048-3.121-4.473s1.43-4.469,3.121-4.469,3.123,2.047,3.123,4.469S279.032,266.665,277.341,266.665Z" transform="translate(-93.883 -82.931)" fill="#1580f7" stroke="#fff" stroke-width="1.5"/>
      <path id="Trazado_436" data-name="Trazado 436" d="M210.8,212.469c0-5.265-3.676-9.547-8.2-9.547s-8.2,4.282-8.2,9.547,3.678,9.546,8.2,9.546S210.8,217.732,210.8,212.469Zm-8.2,4.472c-1.692,0-3.122-2.048-3.122-4.472S200.907,208,202.6,208s3.123,2.047,3.123,4.472S204.291,216.94,202.6,216.94Z" transform="translate(-44.426 -50.028)" fill="#1580f7" stroke="#fff" stroke-width="1.5"/>
      <path id="Trazado_437" data-name="Trazado 437" d="M246.177,205.337a2.535,2.535,0,0,0-3.378,1.207l-13.91,29.372a2.537,2.537,0,1,0,4.586,2.171l13.91-29.37A2.537,2.537,0,0,0,246.177,205.337Z" transform="translate(-67.083 -51.464)" fill="#1580f7" stroke="#fff" stroke-width="1.5"/>
      <path id="Trazado_438" data-name="Trazado 438" d="M212.838,167.81l-11.83-9.2a1.053,1.053,0,0,1-.186-.448l1.859-14.864a3.788,3.788,0,0,0-4.3-4.3l-14.871,1.859a1.041,1.041,0,0,1-.451-.186l-9.2-11.825a3.787,3.787,0,0,0-6.083,0l-4.99,6.414-4.122,5.31a1.486,1.486,0,0,1-.49.261c-.112,0-2.043-.23-2.891-.331v0L143.251,139a3.785,3.785,0,0,0-4.3,4.3l1.86,14.864a1.036,1.036,0,0,1-.186.448l-3.152,2.45-8.99,7.015a3.774,3.774,0,0,0,.31,5.814l3.4,2.644,8.026,6.238.406.316a1.044,1.044,0,0,1,.185.448l-.184,1.469h0l-.005.043-.694,5.55h0l-.746,5.966-.23,1.835a3.785,3.785,0,0,0,4.3,4.3l14.872-1.858a1.045,1.045,0,0,1,.451.186l9.2,11.825a3.787,3.787,0,0,0,6.083,0l9.2-11.826a1.088,1.088,0,0,1,.449-.186L198.38,202.7a3.788,3.788,0,0,0,4.3-4.3l-1.859-14.866a1.056,1.056,0,0,1,.185-.449l11.832-9.2a3.786,3.786,0,0,0,0-6.081ZM197.869,179.1a5.846,5.846,0,0,0-2.087,5.035l1.668,13.338-13.345-1.669a4.72,4.72,0,0,0-.587-.037,5.886,5.886,0,0,0-4.447,2.123l-8.255,10.61-8.255-10.61a5.89,5.89,0,0,0-4.448-2.123,4.719,4.719,0,0,0-.587.037l-13.345,1.668,1.669-13.336a5.845,5.845,0,0,0-2.087-5.035l-10.614-8.25,10.616-8.252a5.846,5.846,0,0,0,2.085-5.035l-1.669-13.336,13.345,1.667a4.719,4.719,0,0,0,.587.037,5.892,5.892,0,0,0,4.448-2.123l8.255-10.61,8.255,10.61a5.886,5.886,0,0,0,4.447,2.123,4.7,4.7,0,0,0,.587-.037l13.345-1.667-1.668,13.337a5.844,5.844,0,0,0,2.085,5.034l10.614,8.252Z" transform="translate(0 0)" fill="#1580f7" stroke="#fff" stroke-width="1.5"/>
    </g>
  </g>
</svg>
