<svg xmlns="http://www.w3.org/2000/svg" xmlns:xlink="http://www.w3.org/1999/xlink" width="110" height="110" viewBox="0 0 110 110">
  <defs>
    <clipPath id="clip-AppMe-Admin-Platform-Icon-Pedidos-2">
      <rect width="110" height="110"/>
    </clipPath>
  </defs>
  <g id="AppMe-Admin-Platform-Icon-Pedidos-2" clip-path="url(#clip-AppMe-Admin-Platform-Icon-Pedidos-2)">
    <g id="Grupo_18997" data-name="Grupo 18997" transform="translate(5 12)">
      <path id="Trazado_12259" data-name="Trazado 12259" d="M158.109,254.277a17.941,17.941,0,1,0,17.943,17.938A17.958,17.958,0,0,0,158.109,254.277Zm0,31.974a14.033,14.033,0,1,1,14.036-14.036A14.049,14.049,0,0,1,158.109,286.251Z" transform="translate(-112.784 -211.159)" fill="#f5f7f9"/>
      <path id="Trazado_12260" data-name="Trazado 12260" d="M229.552,302.786h-3.668v-6.132a1.954,1.954,0,1,0-3.908,0v8.086a1.954,1.954,0,0,0,1.954,1.954h5.621a1.954,1.954,0,1,0,0-3.908Z" transform="translate(-178.606 -243.684)" fill="#f5f7f9"/>
      <path id="Trazado_12261" data-name="Trazado 12261" d="M94.279,33.6H39.454A5.765,5.765,0,0,0,33.7,39.357V71.575a25.969,25.969,0,0,0-6.316,4.5H19.461a1.954,1.954,0,1,0,0,3.908h4.6a25.82,25.82,0,0,0-2.452,4.406H12.322a1.954,1.954,0,0,0,0,3.908H20.27a25.714,25.714,0,0,0-.718,4.406H1.954a1.954,1.954,0,1,0,0,3.908h17.6a25.715,25.715,0,0,0,.719,4.406H12.322a1.954,1.954,0,0,0,0,3.908h9.285a25.842,25.842,0,0,0,2.451,4.406h-4.6a1.954,1.954,0,1,0,0,3.908h7.912a25.834,25.834,0,0,0,43.26-13.3H94.279a5.765,5.765,0,0,0,5.759-5.759V39.357A5.765,5.765,0,0,0,94.279,33.6ZM59.768,37.506h14.2V55.221L67.98,51.052a1.954,1.954,0,0,0-2.234,0L59.768,55.22V37.506ZM45.325,116.6A21.942,21.942,0,1,1,67.269,94.654,21.967,21.967,0,0,1,45.325,116.6Zm50.8-22.421a1.853,1.853,0,0,1-1.851,1.851H71.14q.036-.683.037-1.375A25.857,25.857,0,0,0,37.6,69.985V39.357a1.853,1.853,0,0,1,1.851-1.851H55.86V58.963a1.954,1.954,0,0,0,3.071,1.6l7.933-5.53,7.938,5.53a1.954,1.954,0,0,0,3.071-1.6V37.506H94.279a1.853,1.853,0,0,1,1.851,1.851v54.82Z" transform="translate(0 -33.598)" fill="#f5f7f9"/>
      <path id="Trazado_12262" data-name="Trazado 12262" d="M33.616,254.9h3.329a1.954,1.954,0,1,0,0-3.908H33.616a1.954,1.954,0,1,0,0,3.908Z" transform="translate(-25.476 -208.514)" fill="#f5f7f9"/>
      <path id="Trazado_12263" data-name="Trazado 12263" d="M36.944,421.183H33.616a1.954,1.954,0,1,0,0,3.908h3.329a1.954,1.954,0,1,0,0-3.908Z" transform="translate(-25.476 -345.454)" fill="#f5f7f9"/>
    </g>
  </g>
</svg>
