<svg xmlns="http://www.w3.org/2000/svg" xmlns:xlink="http://www.w3.org/1999/xlink" width="110" height="110" viewBox="0 0 110 110">
  <defs>
    <clipPath id="clip-AppMe-Admin-Platform-Icon-Recaudado">
      <rect width="110" height="110"/>
    </clipPath>
  </defs>
  <g id="AppMe-Admin-Platform-Icon-Recaudado" clip-path="url(#clip-AppMe-Admin-Platform-Icon-Recaudado)">
    <g id="Grupo_19003" data-name="Grupo 19003" transform="translate(-3259.87 1519.18)">
      <g id="Grupo_18852" data-name="Grupo 18852" transform="translate(3276.178 -1497.028)">
        <g id="Grupo_18851" data-name="Grupo 18851" transform="translate(0 0)">
          <path id="Trazado_12239" data-name="Trazado 12239" d="M78.265,66.715h0l-14.8-37.155a1.539,1.539,0,0,0-2-.861h0L1.435,52.6a1.507,1.507,0,0,0-.615.489A1.521,1.521,0,0,0,0,54.427v40a1.539,1.539,0,0,0,1.539,1.539H66.156a1.539,1.539,0,0,0,1.539-1.539V72.582l9.711-3.868A1.538,1.538,0,0,0,78.265,66.715ZM64.618,92.89H3.077V55.966H64.618ZM25.67,52.9,51.431,42.631a12.24,12.24,0,0,0,8.82,3.8L62.821,52.9ZM67.695,69.277V54.427a1.539,1.539,0,0,0-1.539-1.539h-.025L62.871,44.7a1.274,1.274,0,0,0-.126-.194,1.52,1.52,0,0,0-1.608-1.185,9.2,9.2,0,0,1-8.066-3.474A1.525,1.525,0,0,0,51.1,39.5a1.724,1.724,0,0,0-.217.04L19.43,52.067a1.52,1.52,0,0,0-.845.822H9.034L61.178,32.126l13.66,34.3Z" transform="translate(0 -28.588)" fill="#aab5c7"/>
          <path id="Trazado_12240" data-name="Trazado 12240" d="M33.1,210.406a9.2,9.2,0,0,1,6.211,6.2,1.538,1.538,0,0,0,1.474,1.1,1.411,1.411,0,0,0,.237-.035,1.431,1.431,0,0,0,.211.043H78.155a1.307,1.307,0,0,0,.188-.038,1.433,1.433,0,0,0,1.73-1.053l0-.008a9.2,9.2,0,0,1,6.211-6.211,1.519,1.519,0,0,0,1.055-1.692,1.552,1.552,0,0,0,.045-.228V196.176a1.389,1.389,0,0,0-.046-.228,1.517,1.517,0,0,0-1.055-1.692,9.19,9.19,0,0,1-6.208-6.213,1.52,1.52,0,0,0-1.7-1.055,1.471,1.471,0,0,0-.217-.043H41.231a1.456,1.456,0,0,0-.229.046,1.52,1.52,0,0,0-1.692,1.055,9.2,9.2,0,0,1-6.211,6.209,1.519,1.519,0,0,0-1.055,1.692,1.553,1.553,0,0,0-.043.228v12.308a1.418,1.418,0,0,0,.043.214A1.523,1.523,0,0,0,33.1,210.406ZM35.077,196.8a12.208,12.208,0,0,0,6.779-6.779H77.529a12.211,12.211,0,0,0,6.78,6.779v11.059a12.222,12.222,0,0,0-6.779,6.779H41.856a12.222,12.222,0,0,0-6.779-6.779Z" transform="translate(-25.846 -156.491)" fill="#aab5c7"/>
          <path id="Trazado_12241" data-name="Trazado 12241" d="M137.231,237.407A9.231,9.231,0,1,0,128,228.176,9.231,9.231,0,0,0,137.231,237.407Zm0-15.385a6.154,6.154,0,1,1-6.154,6.154A6.154,6.154,0,0,1,137.231,222.022Z" transform="translate(-103.384 -182.337)" fill="#aab5c7"/>
          <path id="Trazado_12242" data-name="Trazado 12242" d="M78.308,259.561A2.308,2.308,0,1,0,76,257.253,2.308,2.308,0,0,0,78.308,259.561Zm0-3.077a.769.769,0,1,1-.769.769A.769.769,0,0,1,78.308,256.483Z" transform="translate(-61.384 -211.413)" fill="#aab5c7"/>
          <path id="Trazado_12243" data-name="Trazado 12243" d="M254.308,259.561A2.308,2.308,0,1,0,252,257.253,2.308,2.308,0,0,0,254.308,259.561Zm0-3.077a.769.769,0,1,1-.769.769A.769.769,0,0,1,254.308,256.483Z" transform="translate(-203.537 -211.413)" fill="#aab5c7"/>
        </g>
      </g>
    </g>
  </g>
</svg>
