<svg xmlns="http://www.w3.org/2000/svg" xmlns:xlink="http://www.w3.org/1999/xlink" width="110" height="110" viewBox="0 0 110 110">
  <defs>
    <clipPath id="clip-AppMe-Admin-Platform-Icon-Mes-Mayor-Compra">
      <rect width="110" height="110"/>
    </clipPath>
  </defs>
  <g id="AppMe-Admin-Platform-Icon-Mes-Mayor-Compra" clip-path="url(#clip-AppMe-Admin-Platform-Icon-Mes-Mayor-Compra)">
    <g id="Grupo_18999" data-name="Grupo 18999" transform="translate(15.441 20.458)">
      <g id="Grupo_1385" data-name="Grupo 1385" transform="translate(0)">
        <path id="Trazado_574" data-name="Trazado 574" d="M77.992,78.059H4.746V29.34h71.5V82.6H80.99V24.8H69.205V20.868a8.234,8.234,0,0,0-16.451,0V24.8H28.236V20.868A8.062,8.062,0,0,0,20.01,13a8.062,8.062,0,0,0-8.226,7.868V24.8H0V82.6H77.992ZM57.5,20.868a3.483,3.483,0,0,1,6.96,0V24.8H57.5Zm-40.97,0a3.483,3.483,0,0,1,6.96,0V24.8H16.53Z" transform="translate(0 -13)" fill="#aab5c7"/>
        <path id="Trazado_575" data-name="Trazado 575" d="M60,151H74.237v4.539H60Z" transform="translate(-50.509 -130.121)" fill="#aab5c7"/>
        <path id="Trazado_576" data-name="Trazado 576" d="M390,151h9.491v4.539H390Z" transform="translate(-328.308 -130.121)" fill="#aab5c7"/>
        <path id="Trazado_577" data-name="Trazado 577" d="M60,230h4.746v4.539H60Z" transform="translate(-50.509 -197.168)" fill="#aab5c7"/>
        <path id="Trazado_578" data-name="Trazado 578" d="M120,230h4.746v4.539H120Z" transform="translate(-101.018 -197.168)" fill="#aab5c7"/>
        <path id="Trazado_579" data-name="Trazado 579" d="M180,230h4.746v4.539H180Z" transform="translate(-151.527 -197.168)" fill="#aab5c7"/>
        <path id="Trazado_580" data-name="Trazado 580" d="M240,230h4.746v4.539H240Z" transform="translate(-202.036 -197.168)" fill="#aab5c7"/>
        <path id="Trazado_581" data-name="Trazado 581" d="M300,230h4.746v4.539H300Z" transform="translate(-252.545 -197.168)" fill="#aab5c7"/>
        <path id="Trazado_582" data-name="Trazado 582" d="M360,230h4.746v4.539H360Z" transform="translate(-303.054 -197.168)" fill="#aab5c7"/>
        <path id="Trazado_583" data-name="Trazado 583" d="M420,230h4.746v4.539H420Z" transform="translate(-353.563 -197.168)" fill="#aab5c7"/>
        <path id="Trazado_584" data-name="Trazado 584" d="M60,296h4.746v4.539H60Z" transform="translate(-50.509 -253.182)" fill="#aab5c7"/>
        <path id="Trazado_585" data-name="Trazado 585" d="M120,296h4.746v4.539H120Z" transform="translate(-101.018 -253.182)" fill="#aab5c7"/>
        <path id="Trazado_586" data-name="Trazado 586" d="M180,296h4.746v4.539H180Z" transform="translate(-151.527 -253.182)" fill="#aab5c7"/>
        <path id="Trazado_587" data-name="Trazado 587" d="M240,296h4.746v4.539H240Z" transform="translate(-202.036 -253.182)" fill="#aab5c7"/>
        <path id="Trazado_588" data-name="Trazado 588" d="M60,363h4.746v4.539H60Z" transform="translate(-50.509 -310.045)" fill="#aab5c7"/>
        <path id="Trazado_589" data-name="Trazado 589" d="M120,363h4.746v4.539H120Z" transform="translate(-101.018 -310.045)" fill="#aab5c7"/>
        <path id="Trazado_590" data-name="Trazado 590" d="M180,363h4.746v4.539H180Z" transform="translate(-151.527 -310.045)" fill="#aab5c7"/>
        <path id="Trazado_591" data-name="Trazado 591" d="M240,363h4.746v4.539H240Z" transform="translate(-202.036 -310.045)" fill="#aab5c7"/>
        <path id="Trazado_592" data-name="Trazado 592" d="M300,296h4.746v4.539H300Z" transform="translate(-252.545 -253.182)" fill="#aab5c7"/>
        <path id="Trazado_593" data-name="Trazado 593" d="M300,363h4.746v4.539H300Z" transform="translate(-252.545 -310.045)" fill="#aab5c7"/>
        <path id="Trazado_594" data-name="Trazado 594" d="M360,296h4.746v4.539H360Z" transform="translate(-303.054 -253.182)" fill="#aab5c7"/>
        <path id="Trazado_595" data-name="Trazado 595" d="M360,363h4.746v4.539H360Z" transform="translate(-303.054 -310.045)" fill="#aab5c7"/>
        <path id="Trazado_596" data-name="Trazado 596" d="M420,296h4.746v4.539H420Z" transform="translate(-353.563 -253.182)" fill="#aab5c7"/>
        <path id="Trazado_597" data-name="Trazado 597" d="M420,363h4.746v4.539H420Z" transform="translate(-353.563 -310.045)" fill="#aab5c7"/>
      </g>
    </g>
  </g>
</svg>
