<svg xmlns="http://www.w3.org/2000/svg" xmlns:xlink="http://www.w3.org/1999/xlink" width="110" height="110" viewBox="0 0 110 110">
  <defs>
    <clipPath id="clip-AppMe-Admin-Platform-Icon-Productos-1">
      <rect width="110" height="110"/>
    </clipPath>
  </defs>
  <g id="AppMe-Admin-Platform-Icon-Productos-1" clip-path="url(#clip-AppMe-Admin-Platform-Icon-Productos-1)">
    <g id="_743131" data-name="743131" transform="translate(18.871 12.397)">
      <g id="Grupo_445" data-name="Grupo 445" transform="translate(25.93)">
        <g id="Grupo_444" data-name="Grupo 444" transform="translate(0)">
          <path id="Trazado_422" data-name="Trazado 422" d="M98.96,10.538A12.287,12.287,0,0,0,76.872,5.046a1.445,1.445,0,1,0,2.333,1.7A9.4,9.4,0,0,1,96.1,10.945a1.447,1.447,0,0,0,1.43,1.242,1.549,1.549,0,0,0,.206-.014A1.446,1.446,0,0,0,98.96,10.538Z" transform="translate(-76.593)" fill="#1580f7" stroke="#1580f7" stroke-width="1"/>
        </g>
      </g>
      <g id="Grupo_447" data-name="Grupo 447" transform="translate(2.891 18.789)">
        <g id="Grupo_446" data-name="Grupo 446" transform="translate(0)">
          <path id="Trazado_423" data-name="Trazado 423" d="M88.467,52.3l-4.336-7.227a1.443,1.443,0,0,0-1.239-.7H78.736a1.445,1.445,0,0,0,0,2.89h3.337l2.6,4.336H26.183l2.6-4.336h1.531a1.445,1.445,0,0,0,0-2.89H27.966a1.443,1.443,0,0,0-1.239.7L22.391,52.3a1.446,1.446,0,0,0,1.239,2.19h63.6a1.446,1.446,0,0,0,1.239-2.19Z" transform="translate(-22.185 -44.372)" fill="#1580f7" stroke="#1580f7" stroke-width="1"/>
        </g>
      </g>
      <g id="Grupo_449" data-name="Grupo 449" transform="translate(38.104 8.099)">
        <g id="Grupo_448" data-name="Grupo 448">
          <path id="Trazado_424" data-name="Trazado 424" d="M129.207,24.418a1.443,1.443,0,0,0-.9-.645l-19.7-4.608a1.444,1.444,0,0,0-1.737,1.078l-1.486,6.352a1.445,1.445,0,0,0,2.815.658l1.157-4.944,16.889,3.95L123.588,37.6a1.444,1.444,0,0,0,1.078,1.736,1.46,1.46,0,0,0,.331.038,1.443,1.443,0,0,0,1.405-1.116l2.983-12.754A1.44,1.44,0,0,0,129.207,24.418Z" transform="translate(-105.343 -19.126)" fill="#1580f7" stroke="#1580f7" stroke-width="1"/>
        </g>
      </g>
      <g id="Grupo_451" data-name="Grupo 451" transform="translate(8.526 4.393)">
        <g id="Grupo_450" data-name="Grupo 450" transform="translate(0)">
          <path id="Trazado_425" data-name="Trazado 425" d="M63.867,22.788,62.55,11.65a1.446,1.446,0,0,0-1.605-1.266L36.77,13.241A1.446,1.446,0,0,0,35.5,14.846l2.2,18.578A1.446,1.446,0,0,0,39.134,34.7a1.577,1.577,0,0,0,.172-.01,1.446,1.446,0,0,0,1.265-1.605L38.545,15.941l21.3-2.518L61,23.127a1.445,1.445,0,0,0,2.871-.338Z" transform="translate(-35.494 -10.374)" fill="#1580f7" stroke="#1580f7" stroke-width="1"/>
        </g>
      </g>
      <g id="Grupo_453" data-name="Grupo 453" transform="translate(19.326 13.876)">
        <g id="Grupo_452" data-name="Grupo 452">
          <path id="Trazado_426" data-name="Trazado 426" d="M90,45.806l-2.869-11.93a1.444,1.444,0,0,0-1.743-1.067L62.1,38.409a1.446,1.446,0,0,0-1.068,1.743l1.434,5.963a1.445,1.445,0,1,0,2.81-.676l-1.1-4.558,20.474-4.923L87.19,46.483A1.446,1.446,0,0,0,90,45.806Z" transform="translate(-60.997 -32.769)" fill="#1580f7" stroke="#1580f7" stroke-width="1"/>
        </g>
      </g>
      <g id="Grupo_455" data-name="Grupo 455" transform="translate(0 26.017)">
        <g id="Grupo_454" data-name="Grupo 454" transform="translate(0)">
          <path id="Trazado_427" data-name="Trazado 427" d="M84.736,62.812a1.446,1.446,0,0,0-1.444-1.371H19.7a1.446,1.446,0,0,0-1.444,1.371l-2.891,56.37A1.445,1.445,0,0,0,16.8,120.7H86.182a1.445,1.445,0,0,0,1.445-1.519Zm-66.411,55,2.743-53.479h60.85l2.743,53.479Z" transform="translate(-15.359 -61.441)" fill="#1580f7" stroke="#1580f7" stroke-width="1"/>
        </g>
      </g>
      <g id="Grupo_457" data-name="Grupo 457" transform="translate(42.639 31.798)">
        <g id="Grupo_456" data-name="Grupo 456" transform="translate(0)">
          <path id="Trazado_428" data-name="Trazado 428" d="M120.388,75.093a4.336,4.336,0,1,0,4.336,4.336A4.341,4.341,0,0,0,120.388,75.093Zm0,5.782a1.445,1.445,0,1,1,1.445-1.445A1.447,1.447,0,0,1,120.388,80.875Z" transform="translate(-116.052 -75.093)" fill="#1580f7" stroke="#1580f7" stroke-width="1"/>
        </g>
      </g>
      <g id="Grupo_459" data-name="Grupo 459" transform="translate(20.958 31.798)">
        <g id="Grupo_458" data-name="Grupo 458">
          <path id="Trazado_429" data-name="Trazado 429" d="M69.188,75.093a4.336,4.336,0,1,0,4.336,4.336A4.341,4.341,0,0,0,69.188,75.093Zm0,5.782a1.445,1.445,0,1,1,1.445-1.445A1.447,1.447,0,0,1,69.188,80.875Z" transform="translate(-64.852 -75.093)" fill="#1580f7" stroke="#1580f7" stroke-width="1"/>
        </g>
      </g>
      <g id="Grupo_461" data-name="Grupo 461" transform="translate(23.849 36.134)">
        <g id="Grupo_460" data-name="Grupo 460">
          <path id="Trazado_430" data-name="Trazado 430" d="M94.8,85.333h-.111a1.446,1.446,0,0,0-1.445,1.445,1.431,1.431,0,0,0,.111.557v7.392a9.4,9.4,0,1,1-18.79,0V86.779a1.445,1.445,0,0,0-2.89,0v7.949a12.286,12.286,0,1,0,24.571,0V86.779A1.446,1.446,0,0,0,94.8,85.333Z" transform="translate(-71.679 -85.333)" fill="#1580f7" stroke="#1580f7" stroke-width="1"/>
        </g>
      </g>
    </g>
  </g>
</svg>
