<svg xmlns="http://www.w3.org/2000/svg" xmlns:xlink="http://www.w3.org/1999/xlink" width="110" height="110" viewBox="0 0 110 110">
  <defs>
    <clipPath id="clip-AppMe-Admin-Platform-Icon-Repartidores-Creados">
      <rect width="110" height="110"/>
    </clipPath>
  </defs>
  <g id="AppMe-Admin-Platform-Icon-Repartidores-Creados" clip-path="url(#clip-AppMe-Admin-Platform-Icon-Repartidores-Creados)">
    <path id="_3534187" data-name="3534187" d="M105.875,74.783H95.605a19.023,19.023,0,0,0-11.66-4.291H81.489v-.015a16.06,16.06,0,0,0,3.847-3.344,22.362,22.362,0,0,0,3.98-8.183,5.98,5.98,0,0,0,3.892-4.868,3.618,3.618,0,0,0,.089-1.258,3.508,3.508,0,0,0-3.107-3.093V42.214a15.714,15.714,0,1,0-31.429.015v7.546A3.977,3.977,0,0,0,56.6,50.8l-.015.015a3.963,3.963,0,0,0-.843,3.359,5.957,5.957,0,0,0,3.877,4.794,22.362,22.362,0,0,0,3.98,8.183,16.349,16.349,0,0,0,3.847,3.344v.015H64.961A19.228,19.228,0,0,0,46.2,89.831V95.78a.742.742,0,0,0,.74.74h58.937a2.157,2.157,0,0,0,2.146-2.146V76.928A2.176,2.176,0,0,0,105.875,74.783ZM89.761,57.1a19.989,19.989,0,0,0,.429-3.862V51.255a2.554,2.554,0,0,1,1.095.548,2.619,2.619,0,0,1,.474,2.16v.015A4.573,4.573,0,0,1,89.761,57.1Zm-1.11,17.682V72.711A16.971,16.971,0,0,1,93.1,74.783ZM98.372,80.6l-1.924-.8a.6.6,0,0,0-.281-.059h-.222v.03a.112.112,0,0,0-.059.03l-1.924.8v-4.35h4.41Zm-12.577-3.67a.663.663,0,0,1,.666-.666H92.5v5.445a.739.739,0,0,0,.725.74.6.6,0,0,0,.281-.059l2.649-1.11L98.8,82.374a.6.6,0,0,0,.281.059h0a.739.739,0,0,0,.518-.207.753.753,0,0,0,.222-.518V76.262h6.037a.663.663,0,0,1,.666.666V94.374a.663.663,0,0,1-.666.666h-19.4a.663.663,0,0,1-.666-.666ZM64.739,66.2c-2.826-3.4-4.513-9.263-4.513-12.962V49.08a7.182,7.182,0,0,0,2.841,2.2l.044.015c.089.03.163.074.252.1l.133.044a1.109,1.109,0,0,0,.237.074.349.349,0,0,0,.118.03l.044.015c.118.03.222.059.34.089h.015c.074.015.133.03.207.044s.1.015.163.03h.044a1,1,0,0,0,.207.03c.059.015.133.015.192.03s.148.015.237.03h.03c.044,0,.089.015.133.015a4.018,4.018,0,0,0,.414.015H83.057c.133,0,.281,0,.474-.015a7.112,7.112,0,0,0,4.1-1.642l.044-.044c.074-.074.163-.133.237-.207a1.333,1.333,0,0,1,.148-.133l.1-.1a7.521,7.521,0,0,0,.562-.636v4.173c0,3.684-1.687,9.544-4.513,12.962-1.894,2.279-5.238,4.72-8.967,4.72H73.691c-3.714,0-7.073-2.427-8.952-4.72ZM66.988,44.02H60.226v-1.79A14.249,14.249,0,0,1,72.359,28.142C69.962,30.6,66.559,35.63,66.988,44.02Zm21.737,0H81.963c.429-8.39-2.974-13.421-5.371-15.877A14.249,14.249,0,0,1,88.725,42.229Zm-8.242,0H68.453c-.5-9.648,4.631-14.664,6.022-15.833a16.26,16.26,0,0,1,3.655,4.572A20.8,20.8,0,0,1,80.483,44.02Zm8.168,1.554-.015.1c-.015.059-.015.118-.03.163s-.015.074-.03.118a.526.526,0,0,0-.03.148c-.015.044-.015.074-.03.118l-.044.133a1.02,1.02,0,0,1-.044.118l-.044.133c-.015.044-.03.074-.044.118a.525.525,0,0,1-.059.133c-.015.044-.03.074-.044.118a1.539,1.539,0,0,0-.059.148.72.72,0,0,0-.044.1,1.365,1.365,0,0,1-.074.148l-.044.089c-.03.044-.044.089-.074.133l-.015.03c-.015.03-.03.044-.044.074s-.044.074-.089.133l-.015.03a.112.112,0,0,0-.03.059c-.03.044-.059.074-.089.118l-.03.044c-.015.015-.03.044-.044.059-.03.044-.059.074-.089.118l-.044.044c-.015.015-.03.03-.03.044-.03.03-.059.074-.089.1l-.044.059c-.015.015-.03.03-.03.044l-.089.089-.03.03a2.275,2.275,0,0,1-.192.178l-.059.059c-.044.044-.089.074-.133.118L86.7,49.1a1.293,1.293,0,0,1-.148.118l-.059.044a.9.9,0,0,1-.148.1l-.059.044a1.559,1.559,0,0,1-.163.1l-.059.044a.994.994,0,0,0-.163.1l-.059.03a1.1,1.1,0,0,0-.178.1l-.059.03-.178.089-.059.03c-.059.03-.118.044-.178.074l-.074.03a.834.834,0,0,1-.178.059l-.074.03c-.059.015-.118.044-.178.059l-.074.03-.178.044-.089.015-.178.044c-.015,0-.044.015-.059.015l-.044.015c-.059.015-.1.015-.163.03a.111.111,0,0,0-.074.015l-.059.015c-.044,0-.089.015-.133.015a.252.252,0,0,0-.1.015h-.178c-.089,0-.192.015-.281.015H65.878a1.791,1.791,0,0,1-.281-.015h-.163a.326.326,0,0,1-.118-.015c-.044,0-.074-.015-.118-.015l-.074-.015a.111.111,0,0,1-.074-.015c-.044-.015-.1-.015-.163-.03h-.03c-.03,0-.044-.015-.074-.015l-.178-.044-.089-.015-.178-.044-.074-.03c-.059-.015-.118-.044-.178-.059l-.074-.03a.906.906,0,0,1-.178-.074l-.059-.03c-.059-.03-.118-.044-.178-.074l-.059-.03-.178-.089-.059-.03-.178-.089-.044-.03c-.059-.03-.118-.074-.178-.1l-.044-.03c-.059-.044-.118-.074-.178-.118l-.03-.03a2.167,2.167,0,0,0-.192-.133l-.015-.015a1.569,1.569,0,0,1-.178-.148,5.429,5.429,0,0,1-1.036-1.139c-.044-.059-.089-.133-.133-.207l-.015-.015c-.044-.059-.074-.133-.118-.207l-.015-.03a1.352,1.352,0,0,1-.1-.207l-.015-.03c-.03-.074-.074-.148-.1-.222l-.207.1.192-.1-.089-.222-.207.074.207-.089c-.03-.074-.059-.163-.089-.252a1.619,1.619,0,0,1-.074-.252,4.955,4.955,0,0,1-.163-.814H88.7A.128.128,0,0,0,88.651,45.573ZM84.36,76.514V71.971a16.615,16.615,0,0,1,2.826.37v2.442h-.725A2.172,2.172,0,0,0,84.36,76.514ZM55.076,85.7a4.781,4.781,0,0,1,4.765-4.765h.444v1.243a.742.742,0,0,0,.74.74H65.3a.742.742,0,0,0,.74-.74V80.938H82.91v1.243a.742.742,0,0,0,.74.74h.7V94.374a2.5,2.5,0,0,0,.1.666H55.076Zm19.473-9.692h-.074a5.568,5.568,0,0,1-5.49-4.705,11.17,11.17,0,0,0,4.705,1.08h1.554a11.4,11.4,0,0,0,4.705-1.08A5.5,5.5,0,0,1,74.549,76.011Zm-8.523,3.462v-7.5h1.568a6.992,6.992,0,0,0,6.866,5.593h0a7.006,7.006,0,0,0,6.866-5.593H82.88v7.5Zm-5.741,0h-.444a6.239,6.239,0,0,0-6.23,6.23V95.04H47.678V89.831A17.829,17.829,0,0,1,60.3,72.726v6.747ZM58.761,51.255v2a20.964,20.964,0,0,0,.414,3.847,4.542,4.542,0,0,1-2-3.2v-.015a2.471,2.471,0,0,1,.488-2.072A2.353,2.353,0,0,1,58.761,51.255Zm2.989,30.2v-9.1a19.748,19.748,0,0,1,2.811-.37v9.47Z" transform="translate(-21.216 -6.51)" fill="#1580f7" stroke="#1580f7" stroke-width="1"/>
  </g>
</svg>
