<svg xmlns="http://www.w3.org/2000/svg" xmlns:xlink="http://www.w3.org/1999/xlink" width="110" height="110" viewBox="0 0 110 110">
  <defs>
    <clipPath id="clip-AppMe-Admin-Platform-Icon-Notificaciones-1">
      <rect width="110" height="110"/>
    </clipPath>
  </defs>
  <g id="AppMe-Admin-Platform-Icon-Notificaciones-1" clip-path="url(#clip-AppMe-Admin-Platform-Icon-Notificaciones-1)">
    <g id="notification" transform="translate(-32.848 12)">
      <g id="Grupo_487" data-name="Grupo 487" transform="translate(53.848 0)">
        <g id="Grupo_486" data-name="Grupo 486" transform="translate(0 0)">
          <path id="Trazado_440" data-name="Trazado 440" d="M118.7,63.021a8.72,8.72,0,0,1-2.84-6.417v-16.6a1.667,1.667,0,1,0-3.334,0V56.6a12.062,12.062,0,0,0,3.924,8.878,4.333,4.333,0,0,1-2.924,7.532H61.516a4.333,4.333,0,0,1-2.924-7.532A12.062,12.062,0,0,0,62.516,56.6V37.34a25.01,25.01,0,0,1,35.915-22.5,12.348,12.348,0,1,0,2.189-2.629,28.267,28.267,0,0,0-7.9-2.725,6.168,6.168,0,1,0-10.394,0A28.384,28.384,0,0,0,59.182,37.34V56.6a8.72,8.72,0,0,1-2.84,6.417,7.667,7.667,0,0,0,5.173,13.327H76.983a10.669,10.669,0,0,0,21.075,0h15.468A7.667,7.667,0,0,0,118.7,63.021Zm-9.79-50.685a9,9,0,1,1-9,9A9.012,9.012,0,0,1,108.909,12.336Zm-21.388-9a2.834,2.834,0,1,1-2.834,2.834A2.837,2.837,0,0,1,87.521,3.334Zm0,78.682a7.346,7.346,0,0,1-7.141-5.668H94.662A7.346,7.346,0,0,1,87.521,82.015Z" transform="translate(-53.848 0)" fill="#1580f7" stroke="#1580f7" stroke-width="0.5"/>
        </g>
      </g>
      <g id="Grupo_489" data-name="Grupo 489" transform="translate(67.184 35.639)">
        <g id="Grupo_488" data-name="Grupo 488" transform="translate(0)">
          <path id="Trazado_441" data-name="Trazado 441" d="M135.515,213.791a1.667,1.667,0,0,0-1.667,1.667v.035a1.667,1.667,0,0,0,3.334,0v-.035A1.667,1.667,0,0,0,135.515,213.791Z" transform="translate(-133.848 -213.791)" fill="#1580f7" stroke="#1580f7" stroke-width="0.5"/>
        </g>
      </g>
      <g id="Grupo_491" data-name="Grupo 491" transform="translate(68.66 17.003)">
        <g id="Grupo_490" data-name="Grupo 490" transform="translate(0)">
          <path id="Trazado_442" data-name="Trazado 442" d="M161.565,102a20.312,20.312,0,0,0-18.728,12.4,1.667,1.667,0,1,0,3.069,1.3,16.984,16.984,0,0,1,15.659-10.365,1.667,1.667,0,0,0,0-3.334Z" transform="translate(-142.705 -101.999)" fill="#1580f7" stroke="#1580f7" stroke-width="0.5"/>
        </g>
      </g>
    </g>
  </g>
</svg>
