<svg xmlns="http://www.w3.org/2000/svg" xmlns:xlink="http://www.w3.org/1999/xlink" width="110" height="110" viewBox="0 0 110 110">
  <defs>
    <clipPath id="clip-AppMe-Admin-Platform-Icon-Usuarios-Activos">
      <rect width="110" height="110"/>
    </clipPath>
  </defs>
  <g id="AppMe-Admin-Platform-Icon-Usuarios-Activos" clip-path="url(#clip-AppMe-Admin-Platform-Icon-Usuarios-Activos)">
    <g id="_546448" data-name="546448" transform="translate(13.967 -59.314)">
      <g id="Grupo_18836" data-name="Grupo 18836" transform="translate(0 87.27)">
        <path id="Trazado_12234" data-name="Trazado 12234" d="M82.437,101.294a5.793,5.793,0,0,0-1.184-3.567l-6.532-8.358a5.617,5.617,0,0,0-4.422-2.1,5.446,5.446,0,0,0-2.889.809l-6.369,3.962a5.811,5.811,0,0,1-2.927.713,5.307,5.307,0,0,1-2.244-.44l-6.237-3.021a7.513,7.513,0,0,0-3.255-.685A8.11,8.11,0,0,0,41.8,89.927l-.728.511L38.594,89.2a9.344,9.344,0,0,0-4.062-.835,9.719,9.719,0,0,0-3.728.684l-4.248,1.813a7.767,7.767,0,0,1-2.883.491,7.763,7.763,0,0,1-2.881-.491l-4.252-1.814a6.189,6.189,0,0,0-2.426-.473,7.389,7.389,0,0,0-2.761.541,6.277,6.277,0,0,0-2.329,1.6l-7.741,8.67a5.027,5.027,0,0,0,.491,7.186l7.221,6.161-3.426,3.574a5.1,5.1,0,0,0,.175,7.228l.695.66A5.1,5.1,0,0,0,8.7,125.428a5.047,5.047,0,0,0,.951,6.129h0l.7.663a5.17,5.17,0,0,0,5.549,1,5.05,5.05,0,0,0,1.42,2.473l.7.663a5.159,5.159,0,0,0,6.392.549,5.068,5.068,0,0,0,1.336,2.195l.7.663a5.166,5.166,0,0,0,7.263-.172l3.028-3.162,4.113,3.807a5.162,5.162,0,0,0,7.258-.261l.657-.7a5.066,5.066,0,0,0,1.151-2.081l1.593,1.471a5.17,5.17,0,0,0,7.263-.268l.653-.7a5.048,5.048,0,0,0,1.309-2.822,5.028,5.028,0,0,0,5.042-1.447l.655-.7a5.089,5.089,0,0,0,1.369-3.479,5.219,5.219,0,0,0-.141-1.147,5.091,5.091,0,0,0,3.081-1.56l.657-.7a5.11,5.11,0,0,0-.267-7.228L69.9,117.47l11.084-12.255A5.835,5.835,0,0,0,82.437,101.294ZM9.985,122.82a2.331,2.331,0,0,1-1.61-.637l-.7-.66a2.324,2.324,0,0,1-.081-3.285l7.016-7.322a2.355,2.355,0,0,1,3.3-.079l.693.661a4.4,4.4,0,0,1,.719,1.684,2.312,2.312,0,0,1-.415,1.314l-7.573,7.891A2.362,2.362,0,0,1,9.985,122.82Zm5.6,7.3a2.356,2.356,0,0,1-3.3.078l-.7-.662h0a2.331,2.331,0,0,1-.079-3.285s9.352-9.735,9.431-9.829a2.342,2.342,0,0,1,3.228-.016l.7.663a2.327,2.327,0,0,1,.079,3.286Zm7.665,4.139a2.352,2.352,0,0,1-3.3.078l-.7-.662a2.309,2.309,0,0,1-.2-3.13l6.513-6.8a2.335,2.335,0,0,1,3.171.032l.7.663a2.326,2.326,0,0,1,.079,3.285Zm12.376-.717-3.952,4.125a2.353,2.353,0,0,1-3.3.078l-.7-.662A2.326,2.326,0,0,1,27.6,133.8l3.95-4.125a2.356,2.356,0,0,1,3.3-.078l.7.662a2.327,2.327,0,0,1,.076,3.285Zm34.334-11.189a2.3,2.3,0,0,1-.622,1.58l-.655.7a2.354,2.354,0,0,1-3.3.12l-11.035-10.2L52.443,116.6l11.811,10.942a2.325,2.325,0,0,1,.121,3.286l-.653.7a2.353,2.353,0,0,1-3.3.121l-11.038-10.2-1.906,2.043,9.8,9.058a2.321,2.321,0,0,1,.1,3.252l-.655.7a2.357,2.357,0,0,1-3.3.122L43.638,127.6h0l0,0-1.9,2.047,0,0,.037.035,4.9,4.519a2.3,2.3,0,0,1,.042,3.182l-.655.7a2.349,2.349,0,0,1-3.295.119L38.5,134.254a5.033,5.033,0,0,0-1.01-6.011l-.7-.663a5.136,5.136,0,0,0-3.542-1.407c-.1,0-.2.023-.294.028,0-.023.005-.048.005-.071,0-1.344-1.588-3.7-1.588-3.7l-.7-.661a5.118,5.118,0,0,0-2.585-1.317,5.038,5.038,0,0,0-1.284-5.394l-.7-.663a5.146,5.146,0,0,0-3.544-1.409c-.148,0-.294.03-.441.043a5.089,5.089,0,0,0-1.572-3.542h0l-.7-.66a5.163,5.163,0,0,0-7.263.171l-1.656,1.728L3.6,104.464a2.249,2.249,0,0,1-.218-3.215l7.741-8.67a3.532,3.532,0,0,1,1.294-.873,4.607,4.607,0,0,1,1.7-.334,3.4,3.4,0,0,1,1.323.248l4.25,1.813a10.457,10.457,0,0,0,3.987.717,10.458,10.458,0,0,0,3.987-.717l4.248-1.813a6.959,6.959,0,0,1,2.626-.459,6.668,6.668,0,0,1,2.806.541l1.134.566-4.332,3.046a5,5,0,0,0-1.142,7.1l0,0,.572.769a5.593,5.593,0,0,0,4.475,2.191,5.434,5.434,0,0,0,2.8-.763l2.591-1.556a4.267,4.267,0,0,1,2.152-.524,4.481,4.481,0,0,1,2.534.713l7.168,5.139a71.6,71.6,0,0,1,5.634,4.6l8.3,7.671A2.312,2.312,0,0,1,69.963,122.356ZM78.9,103.351,67.848,115.573l-5.018-4.639a73.84,73.84,0,0,0-5.9-4.816l-7.166-5.139a7.243,7.243,0,0,0-4.173-1.238,7.056,7.056,0,0,0-3.6.925L39.4,102.221a2.629,2.629,0,0,1-1.352.362,2.794,2.794,0,0,1-2.225-1.063l-.57-.768,0,0a2.22,2.22,0,0,1,.509-3.161l7.661-5.383a5.392,5.392,0,0,1,2.96-.807,4.745,4.745,0,0,1,2.029.4l6.237,3.021a8.056,8.056,0,0,0,3.471.722,8.532,8.532,0,0,0,4.411-1.138L68.9,90.445a2.648,2.648,0,0,1,1.4-.385,2.826,2.826,0,0,1,2.21,1.024l6.532,8.358a3.041,3.041,0,0,1,.595,1.854A3.1,3.1,0,0,1,78.9,103.351Z" transform="translate(0 -87.27)" fill="#49b166"/>
      </g>
    </g>
  </g>
</svg>
