<svg xmlns="http://www.w3.org/2000/svg" xmlns:xlink="http://www.w3.org/1999/xlink" width="110" height="110" viewBox="0 0 110 110">
  <defs>
    <clipPath id="clip-AppMe-Admin-Platform-Icon-Repartidores-2_1">
      <rect width="110" height="110"/>
    </clipPath>
  </defs>
  <g id="AppMe-Admin-Platform-Icon-Repartidores-2_1" data-name="AppMe-Admin-Platform-Icon-Repartidores-2 – 1" clip-path="url(#clip-AppMe-Admin-Platform-Icon-Repartidores-2_1)">
    <g id="_1170718" data-name="1170718" transform="translate(20.437 20.438)">
      <path id="Trazado_12201" data-name="Trazado 12201" d="M37.126,32.67a6.1,6.1,0,0,0,4.248-1.719l6.01,3a6.125,6.125,0,1,0,11.6-1.884L67.157,23.9a6.125,6.125,0,0,0,8.485-7.359l7.1-5.322a6.118,6.118,0,1,0-2.452-3.265l-7.1,5.322a6.123,6.123,0,0,0-8.92,7.737L56.1,29.185a6.113,6.113,0,0,0-6.888,1.12l-6.01-3a6.125,6.125,0,1,0-6.077,5.37ZM86.131,4.084a2.042,2.042,0,1,1-2.042,2.042A2.044,2.044,0,0,1,86.131,4.084ZM69.8,16.335a2.042,2.042,0,1,1-2.042,2.042A2.044,2.044,0,0,1,69.8,16.335ZM53.461,32.67a2.042,2.042,0,1,1-2.042,2.042A2.044,2.044,0,0,1,53.461,32.67ZM37.126,24.5a2.042,2.042,0,1,1-2.042,2.042A2.044,2.044,0,0,1,37.126,24.5Zm0,0" transform="translate(-26.78)" fill="#49b166" stroke="#daeedf" stroke-width="1"/>
      <path id="Trazado_12202" data-name="Trazado 12202" d="M67.655,195.194H65.477V152.042A2.042,2.042,0,0,0,63.435,150H55.267a2.042,2.042,0,0,0-2.042,2.042v43.152H49.142v-30.9a2.042,2.042,0,0,0-2.042-2.042H38.932a2.042,2.042,0,0,0-2.042,2.042v30.9H32.807V180.629a2.042,2.042,0,0,0-2.042-2.042H22.6a2.042,2.042,0,0,0-2.042,2.042v14.566H16.471V172.461a2.042,2.042,0,0,0-2.042-2.042H6.262a2.042,2.042,0,0,0-2.042,2.042v22.733H2.042a2.042,2.042,0,1,0,0,4.084H67.655a2.042,2.042,0,1,0,0-4.084Zm-10.346-41.11h4.084v41.11H57.309ZM40.974,166.335h4.084v28.859H40.974ZM24.639,182.67h4.084v12.524H24.639ZM8.3,174.5h4.084v20.691H8.3Zm0,0" transform="translate(0 -129.581)" fill="#49b166" stroke="#daeedf" stroke-width="1"/>
    </g>
  </g>
</svg>
