<svg xmlns="http://www.w3.org/2000/svg" xmlns:xlink="http://www.w3.org/1999/xlink" width="110" height="110" viewBox="0 0 110 110">
  <defs>
    <clipPath id="clip-AppMe-Admin-Platform-Icon-Ver">
      <rect width="110" height="110"/>
    </clipPath>
  </defs>
  <g id="AppMe-Admin-Platform-Icon-Ver" clip-path="url(#clip-AppMe-Admin-Platform-Icon-Ver)">
    <g id="_709612_2" data-name="709612 2" transform="translate(19.743 33.072)">
      <g id="Grupo_18874" data-name="Grupo 18874" transform="translate(0 0)">
        <g id="Grupo_18873" data-name="Grupo 18873" transform="translate(0)">
          <path id="Trazado_12249" data-name="Trazado 12249" d="M71.467,114.357c-.643-.879-15.952-21.522-35.505-21.522S1.1,113.478.456,114.356a2.373,2.373,0,0,0,0,2.8c.642.879,15.952,21.522,35.505,21.522s34.863-20.643,35.505-21.521A2.371,2.371,0,0,0,71.467,114.357ZM35.962,133.935c-14.4,0-26.877-13.7-30.57-18.18,3.688-4.483,16.136-18.177,30.57-18.177,14.4,0,26.876,13.7,30.57,18.18C62.844,120.24,50.4,133.935,35.962,133.935Z" transform="translate(0 -92.835)" fill="#fff" stroke="#1580f7" stroke-width="0.5"/>
        </g>
      </g>
      <g id="Grupo_18876" data-name="Grupo 18876" transform="translate(21.735 8.694)">
        <g id="Grupo_18875" data-name="Grupo 18875" transform="translate(0 0)">
          <path id="Trazado_12250" data-name="Trazado 12250" d="M168.949,154.725a14.227,14.227,0,1,0,14.227,14.227A14.243,14.243,0,0,0,168.949,154.725Zm0,23.711a9.484,9.484,0,1,1,9.484-9.484A9.495,9.495,0,0,1,168.949,178.436Z" transform="translate(-154.722 -154.725)" fill="#fff" stroke="#1580f7" stroke-width="0.5"/>
        </g>
      </g>
    </g>
  </g>
</svg>
