<svg xmlns="http://www.w3.org/2000/svg" xmlns:xlink="http://www.w3.org/1999/xlink" width="110" height="110" viewBox="0 0 110 110">
  <defs>
    <clipPath id="clip-AppMe-Admin-Platform-Icon-Vendidos">
      <rect width="110" height="110"/>
    </clipPath>
  </defs>
  <g id="AppMe-Admin-Platform-Icon-Vendidos" clip-path="url(#clip-AppMe-Admin-Platform-Icon-Vendidos)">
    <g id="_743131" data-name="743131" transform="translate(22.095 18.277)">
      <g id="Grupo_445" data-name="Grupo 445" transform="translate(23.878)">
        <g id="Grupo_444" data-name="Grupo 444" transform="translate(0)">
          <path id="Trazado_422" data-name="Trazado 422" d="M97.19,9.281A11.213,11.213,0,0,0,85.99,0,11.529,11.529,0,0,0,76.85,4.444a1.237,1.237,0,0,0,.289,1.779A1.371,1.371,0,0,0,79,5.946a8.823,8.823,0,0,1,6.992-3.4,8.573,8.573,0,0,1,8.564,7.094,1.315,1.315,0,0,0,1.316,1.094,1.488,1.488,0,0,0,.19-.013A1.284,1.284,0,0,0,97.19,9.281Z" transform="translate(-76.593)" fill="#aab5c7" stroke="#aab5c7" stroke-width="0.4"/>
        </g>
      </g>
      <g id="Grupo_447" data-name="Grupo 447" transform="translate(2.662 16.55)">
        <g id="Grupo_446" data-name="Grupo 446" transform="translate(0)">
          <path id="Trazado_423" data-name="Trazado 423" d="M83.221,51.356,79.228,44.99a1.343,1.343,0,0,0-1.141-.618H74.26a1.274,1.274,0,1,0,0,2.546h3.073l2.4,3.819H25.866l2.4-3.819h1.41a1.274,1.274,0,1,0,0-2.546H27.509a1.343,1.343,0,0,0-1.141.618l-3.993,6.366a1.227,1.227,0,0,0-.017,1.283,1.342,1.342,0,0,0,1.158.646H82.08a1.342,1.342,0,0,0,1.158-.646A1.226,1.226,0,0,0,83.221,51.356Z" transform="translate(-22.185 -44.372)" fill="#aab5c7" stroke="#aab5c7" stroke-width="0.4"/>
        </g>
      </g>
      <g id="Grupo_449" data-name="Grupo 449" transform="translate(35.089 7.133)">
        <g id="Grupo_448" data-name="Grupo 448">
          <path id="Trazado_424" data-name="Trazado 424" d="M127.318,23.787a1.328,1.328,0,0,0-.828-.568L108.346,19.16a1.385,1.385,0,0,0-1.006.158,1.278,1.278,0,0,0-.593.792L105.379,25.7a1.271,1.271,0,0,0,.993,1.529,1.334,1.334,0,0,0,1.6-.95l1.065-4.354,15.552,3.479L122.144,35.4a1.271,1.271,0,0,0,.993,1.529,1.4,1.4,0,0,0,.3.034,1.318,1.318,0,0,0,1.294-.983l2.747-11.233A1.221,1.221,0,0,0,127.318,23.787Z" transform="translate(-105.343 -19.126)" fill="#aab5c7" stroke="#aab5c7" stroke-width="0.4"/>
        </g>
      </g>
      <g id="Grupo_451" data-name="Grupo 451" transform="translate(7.852 3.869)">
        <g id="Grupo_450" data-name="Grupo 450" transform="translate(0)">
          <path id="Trazado_425" data-name="Trazado 425" d="M61.621,21.309,60.409,11.5a1.259,1.259,0,0,0-.5-.85,1.374,1.374,0,0,0-.98-.265L36.669,12.9A1.287,1.287,0,0,0,35.5,14.313l2.022,16.363a1.312,1.312,0,0,0,1.32,1.124A1.517,1.517,0,0,0,39,31.792a1.288,1.288,0,0,0,1.165-1.414L38.3,15.278,57.921,13.06l1.056,8.547a1.321,1.321,0,0,0,1.478,1.115A1.287,1.287,0,0,0,61.621,21.309Z" transform="translate(-35.494 -10.374)" fill="#aab5c7" stroke="#aab5c7" stroke-width="0.4"/>
        </g>
      </g>
      <g id="Grupo_453" data-name="Grupo 453" transform="translate(17.796 12.222)">
        <g id="Grupo_452" data-name="Grupo 452">
          <path id="Trazado_426" data-name="Trazado 426" d="M87.706,44.252,85.064,33.744a1.281,1.281,0,0,0-.6-.788,1.391,1.391,0,0,0-1.006-.151L62.017,37.737a1.272,1.272,0,0,0-.983,1.536l1.32,5.252a1.334,1.334,0,0,0,1.6.94,1.272,1.272,0,0,0,.983-1.536l-1.01-4.015,18.854-4.336,2.331,9.27a1.321,1.321,0,0,0,1.293.975,1.387,1.387,0,0,0,.313-.036A1.272,1.272,0,0,0,87.706,44.252Z" transform="translate(-60.997 -32.769)" fill="#aab5c7" stroke="#aab5c7" stroke-width="0.4"/>
        </g>
      </g>
      <g id="Grupo_455" data-name="Grupo 455" transform="translate(0 22.916)">
        <g id="Grupo_454" data-name="Grupo 454" transform="translate(0)">
          <path id="Trazado_427" data-name="Trazado 427" d="M79.246,62.649a1.307,1.307,0,0,0-1.33-1.208H19.352a1.307,1.307,0,0,0-1.33,1.208L15.36,112.3a1.242,1.242,0,0,0,.364.942,1.363,1.363,0,0,0,.965.4H80.577a1.367,1.367,0,0,0,.966-.4,1.245,1.245,0,0,0,.364-.942ZM18.09,111.091l2.526-47.1H76.651l2.526,47.1Z" transform="translate(-15.359 -61.441)" fill="#aab5c7" stroke="#aab5c7" stroke-width="0.4"/>
        </g>
      </g>
      <g id="Grupo_457" data-name="Grupo 457" transform="translate(39.265 28.008)">
        <g id="Grupo_456" data-name="Grupo 456" transform="translate(0)">
          <path id="Trazado_428" data-name="Trazado 428" d="M120.045,75.093a3.823,3.823,0,1,0,3.993,3.819A3.913,3.913,0,0,0,120.045,75.093Zm0,5.093a1.274,1.274,0,1,1,1.331-1.273A1.3,1.3,0,0,1,120.045,80.186Z" transform="translate(-116.052 -75.093)" fill="#aab5c7" stroke="#aab5c7" stroke-width="0.4"/>
        </g>
      </g>
      <g id="Grupo_459" data-name="Grupo 459" transform="translate(19.3 28.008)">
        <g id="Grupo_458" data-name="Grupo 458">
          <path id="Trazado_429" data-name="Trazado 429" d="M68.845,75.093a3.823,3.823,0,1,0,3.993,3.819A3.913,3.913,0,0,0,68.845,75.093Zm0,5.093a1.274,1.274,0,1,1,1.331-1.273A1.3,1.3,0,0,1,68.845,80.186Z" transform="translate(-64.852 -75.093)" fill="#aab5c7" stroke="#aab5c7" stroke-width="0.4"/>
        </g>
      </g>
      <g id="Grupo_461" data-name="Grupo 461" transform="translate(21.962 31.827)">
        <g id="Grupo_460" data-name="Grupo 460">
          <path id="Trazado_430" data-name="Trazado 430" d="M92.975,85.333h-.1a1.3,1.3,0,0,0-1.331,1.273,1.212,1.212,0,0,0,.1.491v6.511a8.66,8.66,0,0,1-17.3,0v-7a1.332,1.332,0,0,0-2.662,0v7a11.325,11.325,0,0,0,22.627,0v-7A1.3,1.3,0,0,0,92.975,85.333Z" transform="translate(-71.679 -85.333)" fill="#aab5c7" stroke="#aab5c7" stroke-width="0.4"/>
        </g>
      </g>
    </g>
  </g>
</svg>
