<svg xmlns="http://www.w3.org/2000/svg" xmlns:xlink="http://www.w3.org/1999/xlink" width="110" height="110" viewBox="0 0 110 110">
  <defs>
    <clipPath id="clip-AppMe-Admin-Platform-Icon-Usuarios-Inactivos">
      <rect width="110" height="110"/>
    </clipPath>
  </defs>
  <g id="AppMe-Admin-Platform-Icon-Usuarios-Inactivos" clip-path="url(#clip-AppMe-Admin-Platform-Icon-Usuarios-Inactivos)">
    <g id="Grupo_19001" data-name="Grupo 19001" transform="translate(-1217.204 -123.605)">
      <g id="_2876954" data-name="2876954" transform="translate(1237 147)">
        <path id="Trazado_12251" data-name="Trazado 12251" d="M123.113,155.226h3.351l-4.845,4.845a2.113,2.113,0,0,0,1.494,3.607h8.452a2.113,2.113,0,1,0,0-4.226h-3.351l4.845-4.845A2.113,2.113,0,0,0,131.565,151h-8.452a2.113,2.113,0,1,0,0,4.226Z" transform="translate(-103.955 -134.096)" fill="#cb3d3d" stroke="#f5d8d8" stroke-width="0.5"/>
        <path id="Trazado_12252" data-name="Trazado 12252" d="M243.113,185.226h7.577l-9.071,9.071a2.113,2.113,0,0,0,1.494,3.607h12.678a2.113,2.113,0,1,0,0-4.226h-7.577l9.071-9.071A2.113,2.113,0,0,0,255.791,181H243.113a2.113,2.113,0,0,0,0,4.226Z" transform="translate(-207.05 -159.869)" fill="#cb3d3d" stroke="#f5d8d8" stroke-width="0.5"/>
        <path id="Trazado_12253" data-name="Trazado 12253" d="M31,397.339A6.339,6.339,0,1,0,37.339,391,6.346,6.346,0,0,0,31,397.339Zm8.452,0a2.113,2.113,0,1,1-2.113-2.113A2.115,2.115,0,0,1,39.452,397.339Z" transform="translate(-26.633 -340.287)" fill="#cb3d3d" stroke="#f5d8d8" stroke-width="0.5"/>
        <path id="Trazado_12254" data-name="Trazado 12254" d="M15.118,73.076a7.126,7.126,0,0,0-.148,2.241,8.477,8.477,0,0,0,2.461,5.125,10.844,10.844,0,0,0,8.527,3.027,18.674,18.674,0,0,0,10.151-4.427,14.656,14.656,0,0,0,21.861-6.1,16.825,16.825,0,0,0,0-33.163A14.657,14.657,0,0,0,36.063,33.7a14.657,14.657,0,0,0-21.907,6.071,17.189,17.189,0,0,0-9.625,5.189A16.615,16.615,0,0,0,0,56.357,16.971,16.971,0,0,0,15.118,73.076Zm.746-29.268a2.113,2.113,0,0,0,1.8-1.419,10.452,10.452,0,0,1,16.984-4.416,2.113,2.113,0,0,0,2.829,0,10.452,10.452,0,0,1,16.984,4.416,2.113,2.113,0,0,0,1.8,1.419,12.584,12.584,0,0,1,0,25.1,2.113,2.113,0,0,0-1.8,1.419A10.452,10.452,0,0,1,37.477,74.74a2.113,2.113,0,0,0-2.829,0c-6.191,5.577-11.595,5.394-14.2,2.739-1.222-1.243-1.9-3.267-.495-4.772A2.113,2.113,0,0,0,18.6,69.163l-2.739-.257a12.584,12.584,0,0,1,0-25.1Z" transform="translate(0 -31)" fill="#cb3d3d" stroke="#f5d8d8" stroke-width="0.5"/>
      </g>
    </g>
  </g>
</svg>
