<svg xmlns="http://www.w3.org/2000/svg" xmlns:xlink="http://www.w3.org/1999/xlink" width="110" height="110" viewBox="0 0 110 110">
  <defs>
    <clipPath id="clip-AppMe-Admin-Platform-Icon-Passwords-Usuario">
      <rect width="110" height="110"/>
    </clipPath>
  </defs>
  <g id="AppMe-Admin-Platform-Icon-Passwords-Usuario" clip-path="url(#clip-AppMe-Admin-Platform-Icon-Passwords-Usuario)">
    <g id="_3064265" data-name="3064265" transform="translate(27.279 27.279)">
      <path id="Trazado_1729" data-name="Trazado 1729" d="M31.7,33.119H19.03A4.034,4.034,0,0,1,15,29.09V21.03A4.034,4.034,0,0,1,19.03,17H31.7a4.034,4.034,0,0,1,4.03,4.03v8.06A4.034,4.034,0,0,1,31.7,33.119ZM19.03,20.454a.576.576,0,0,0-.576.576v8.06a.576.576,0,0,0,.576.576H31.7a.576.576,0,0,0,.576-.576V21.03a.576.576,0,0,0-.576-.576Z" transform="translate(19.542 22.146)" fill="#aab5c7"/>
      <path id="Trazado_1730" data-name="Trazado 1730" d="M26.787,25.665h-8.06A1.728,1.728,0,0,1,17,23.938V18.757a5.757,5.757,0,1,1,11.514,0v5.181A1.728,1.728,0,0,1,26.787,25.665Zm-6.333-3.454H25.06V18.757a2.3,2.3,0,1,0-4.606,0Z" transform="translate(22.147 16.934)" fill="#aab5c7"/>
      <path id="Trazado_1731" data-name="Trazado 1731" d="M19.574,48.357a1.581,1.581,0,0,1-.329-.032C19.051,48.288,0,44.353,0,22.866V8.634a1.725,1.725,0,0,1,1.1-1.61L18.95.116a1.734,1.734,0,0,1,1.246,0L38.042,7.025a1.723,1.723,0,0,1,1.105,1.61V22.866a30.4,30.4,0,0,1-.221,3.754A1.726,1.726,0,1,1,35.5,26.2a27.306,27.306,0,0,0,.193-3.339V9.818L19.574,3.58,3.454,9.818V22.866c0,17.4,13.7,21.42,16.108,21.994a22.738,22.738,0,0,0,7.661-3.694,1.727,1.727,0,1,1,2.061,2.773A25.32,25.32,0,0,1,19.9,48.323a1.422,1.422,0,0,1-.327.035Z" transform="translate(0 -0.001)" fill="#aab5c7"/>
    </g>
  </g>
</svg>
