<svg xmlns="http://www.w3.org/2000/svg" xmlns:xlink="http://www.w3.org/1999/xlink" width="110" height="110" viewBox="0 0 110 110">
  <defs>
    <clipPath id="clip-AppMe-Admin-Platform-Icon-Dashboard-1">
      <rect width="110" height="110"/>
    </clipPath>
  </defs>
  <g id="AppMe-Admin-Platform-Icon-Dashboard-1" clip-path="url(#clip-AppMe-Admin-Platform-Icon-Dashboard-1)">
    <g id="_839896" data-name="839896" transform="translate(12.735 12.397)">
      <g id="Grupo_1804" data-name="Grupo 1804" transform="translate(0 0)">
        <g id="Grupo_1803" data-name="Grupo 1803" transform="translate(0 0)">
          <path id="Trazado_3699" data-name="Trazado 3699" d="M160.8,218.936H145.051a2.387,2.387,0,0,0-2.387,2.387v30.908a2.387,2.387,0,0,0,2.387,2.387H160.8a2.387,2.387,0,0,0,2.387-2.387V221.323A2.387,2.387,0,0,0,160.8,218.936Zm-2.387,30.908H147.438V223.71h10.979Z" transform="translate(-110.534 -168.927)" fill="#1580f7" stroke="#fff" stroke-width="1"/>
          <path id="Trazado_3700" data-name="Trazado 3700" d="M297.282,136.911H281.41a2.387,2.387,0,0,0-2.387,2.387v49.644a2.387,2.387,0,0,0,2.387,2.387h15.872a2.387,2.387,0,0,0,2.387-2.387V139.3A2.387,2.387,0,0,0,297.282,136.911Zm-2.387,49.644H283.8V141.685h11.1Z" transform="translate(-215.747 -105.638)" fill="#1580f7" stroke="#fff" stroke-width="1"/>
          <path id="Trazado_3701" data-name="Trazado 3701" d="M24.041,269.613H8.169A2.387,2.387,0,0,0,5.782,272v19.332a2.387,2.387,0,0,0,2.387,2.387H24.041a2.387,2.387,0,0,0,2.387-2.387V272A2.387,2.387,0,0,0,24.041,269.613Zm-2.387,19.333h-11.1V274.387h11.1v14.559Z" transform="translate(-4.919 -208.029)" fill="#1580f7" stroke="#fff" stroke-width="1"/>
          <path id="Trazado_3702" data-name="Trazado 3702" d="M86.163,2.394a2.029,2.029,0,0,0-1.551-.835L62.892.007a2.393,2.393,0,0,0-.358,4.773L77.906,5.824,49.646,27.932l-21.6-16.946a2.387,2.387,0,0,0-3.1.119L2.747,32.347a2.387,2.387,0,0,0-.119,3.342,2.148,2.148,0,0,0,1.79.835,2.386,2.386,0,0,0,1.671-.716L26.734,16,48.095,32.824a2.387,2.387,0,0,0,2.983,0L81.629,9.051,80.435,23.874A2.506,2.506,0,0,0,82.7,26.38h.119a2.387,2.387,0,0,0,2.387-2.148L86.76,4.064A1.91,1.91,0,0,0,86.163,2.394Z" transform="translate(-2.003 0)" fill="#1580f7" stroke="#fff" stroke-width="1"/>
        </g>
      </g>
    </g>
  </g>
</svg>
