<svg xmlns="http://www.w3.org/2000/svg" xmlns:xlink="http://www.w3.org/1999/xlink" width="110" height="110" viewBox="0 0 110 110">
  <defs>
    <clipPath id="clip-AppMe-Admin-Platform-Icon-Usuarios-1">
      <rect width="110" height="110"/>
    </clipPath>
  </defs>
  <g id="AppMe-Admin-Platform-Icon-Usuarios-1" clip-path="url(#clip-AppMe-Admin-Platform-Icon-Usuarios-1)">
    <path id="_1500455" data-name="1500455" d="M96.889,49.952A26.228,26.228,0,0,0,81.411,30.333,16.087,16.087,0,0,0,87.151,17.98a15.726,15.726,0,1,0-31.447,0,16.088,16.088,0,0,0,5.745,12.358,25.659,25.659,0,0,0-3.786,2A26.2,26.2,0,0,0,50,39.889a32.317,32.317,0,0,0-6.556-3.353,19.944,19.944,0,0,0,8.232-16.192A19.688,19.688,0,0,0,32.192.5,19.688,19.688,0,0,0,12.709,20.344a19.944,19.944,0,0,0,8.232,16.192A33.02,33.02,0,0,0,.116,61.791a7.5,7.5,0,0,0,1.639,6.14,7.39,7.39,0,0,0,5.673,2.66H56.957a7.39,7.39,0,0,0,5.673-2.66,7.5,7.5,0,0,0,1.639-6.14,33.943,33.943,0,0,0-1.048-4.273H90.6a6.364,6.364,0,0,0,4.884-2.289A6.444,6.444,0,0,0,96.889,49.952ZM61.386,17.98a10.045,10.045,0,1,1,20.081,0,10.044,10.044,0,1,1-20.081,0ZM18.392,20.344a14,14,0,0,1,13.8-14.161,14,14,0,0,1,13.8,14.161A14,14,0,0,1,32.192,34.5,14,14,0,0,1,18.392,20.344ZM58.274,64.28a1.709,1.709,0,0,1-1.317.628H7.427A1.709,1.709,0,0,1,6.11,64.28a1.811,1.811,0,0,1-.4-1.5,27.068,27.068,0,0,1,26.481-22.6,27.067,27.067,0,0,1,26.481,22.6A1.805,1.805,0,0,1,58.274,64.28Zm32.851-12.7a.69.69,0,0,1-.528.257H60.832a33.076,33.076,0,0,0-6.373-8.387,19.985,19.985,0,0,1,16.968-9.465A20.312,20.312,0,0,1,91.294,50.946.764.764,0,0,1,91.125,51.578Zm0,0" transform="translate(6.796 19.782)" fill="#1580f7" stroke="#f5f7f9" stroke-width="1"/>
  </g>
</svg>
