<svg xmlns="http://www.w3.org/2000/svg" xmlns:xlink="http://www.w3.org/1999/xlink" width="110" height="110" viewBox="0 0 110 110">
  <defs>
    <clipPath id="clip-AppMe-Admin-Platform-Icon-PedidosPendientes">
      <rect width="110" height="110"/>
    </clipPath>
  </defs>
  <g id="AppMe-Admin-Platform-Icon-PedidosPendientes" clip-path="url(#clip-AppMe-Admin-Platform-Icon-PedidosPendientes)">
    <g id="_2780279" data-name="2780279" transform="translate(24.568 22.109)">
      <path id="Trazado_12176" data-name="Trazado 12176" d="M89.931,27.693a2.013,2.013,0,0,0,2.056-1.966V9.9A10.145,10.145,0,0,0,81.63,0h-41.3A10.072,10.072,0,0,0,30.051,9.83V65.118a2.073,2.073,0,0,0,3.541,1.36l2.63-2.627L39,66.508a2.123,2.123,0,0,0,2.907,0l2.633-2.517,2.66,2.523a2.123,2.123,0,0,0,2.9,0l2.7-2.562,2.7,2.562a2.123,2.123,0,0,0,2.893,0l3.462-3.277A18.941,18.941,0,0,0,73.4,67.12c10.2,0,18.5-7.939,18.5-17.7,0-9.115-7.241-16.641-16.51-17.595V27.693ZM87.875,9.9V23.76H75.4V9.9a6.246,6.246,0,0,1,12.479,0ZM56.948,62.351l-2.7-2.564a2.123,2.123,0,0,0-2.895,0l-2.7,2.562L45.982,59.82a2.122,2.122,0,0,0-2.9.005l-2.627,2.512-2.811-2.688a2.119,2.119,0,0,0-2.939.03l-.542.542V9.83a6.043,6.043,0,0,1,6.165-5.9H73.383a9.573,9.573,0,0,0-2.1,5.968V31.841C56.855,33.423,49.917,49.654,58.949,60.457ZM87.795,49.422c0,7.59-6.456,13.765-14.391,13.765S59.013,57.012,59.013,49.422,65.469,35.657,73.4,35.657,87.795,41.832,87.795,49.422Z" transform="translate(-30.051 0)" fill="#1580f7" stroke="#d0e4fc" stroke-width="0.5"/>
      <path id="Trazado_12177" data-name="Trazado 12177" d="M297.217,322.328v4.016h-4.161a1.968,1.968,0,1,0,0,3.933h6.217a2.013,2.013,0,0,0,2.056-1.966v-5.983a2.058,2.058,0,0,0-4.112,0Z" transform="translate(-255.235 -278.365)" fill="#1580f7" stroke="#d0e4fc" stroke-width="0.5"/>
      <path id="Trazado_12178" data-name="Trazado 12178" d="M161.522,70.66c-1.967-1.466-4.533-1.694-5.106-2.684a1,1,0,0,1,.452-1.207,2.552,2.552,0,0,1,2.431.171,2.122,2.122,0,0,0,2.905-.112,1.907,1.907,0,0,0-.117-2.779,5.764,5.764,0,0,0-2.325-1.2v-.162a2.058,2.058,0,0,0-4.112,0v.294a4.867,4.867,0,0,0-2.831,6.9,7.391,7.391,0,0,0,4.2,2.95c1.127.426,2.786,1.009,2.649,2.187a1.863,1.863,0,0,1-1.1,1.386,4.57,4.57,0,0,1-3.581-.5,2.113,2.113,0,0,0-2.846.569,1.915,1.915,0,0,0,.6,2.722,9.005,9.005,0,0,0,2.915,1.127v.25a2.058,2.058,0,0,0,4.112,0v-.4C163.911,78.8,165.434,73.576,161.522,70.66Z" transform="translate(-135.117 -52.761)" fill="#1580f7" stroke="#d0e4fc" stroke-width="0.5"/>
      <path id="Trazado_12179" data-name="Trazado 12179" d="M103.334,256.08H93.055a1.968,1.968,0,1,0,0,3.933h10.279a1.968,1.968,0,1,0,0-3.933Z" transform="translate(-82.645 -222.51)" fill="#1580f7" stroke="#d0e4fc" stroke-width="0.5"/>
      <path id="Trazado_12180" data-name="Trazado 12180" d="M103.291,316.18H93a1.968,1.968,0,1,0,0,3.933h10.286a1.968,1.968,0,1,0,0-3.933Z" transform="translate(-82.602 -274.731)" fill="#1580f7" stroke="#d0e4fc" stroke-width="0.5"/>
      <path id="Trazado_12181" data-name="Trazado 12181" d="M103.248,376.08H92.955a1.968,1.968,0,1,0,0,3.933h10.293a1.968,1.968,0,1,0,0-3.933Z" transform="translate(-82.559 -326.778)" fill="#1580f7" stroke="#d0e4fc" stroke-width="0.5"/>
    </g>
  </g>
</svg>
