<svg xmlns="http://www.w3.org/2000/svg" xmlns:xlink="http://www.w3.org/1999/xlink" width="110" height="110" viewBox="0 0 110 110">
  <defs>
    <clipPath id="clip-AppMe-Admin-Platform-Icon-Notificaciones-2_3">
      <rect width="110" height="110"/>
    </clipPath>
  </defs>
  <g id="AppMe-Admin-Platform-Icon-Notificaciones-2_3" data-name="AppMe-Admin-Platform-Icon-Notificaciones-2 – 3" clip-path="url(#clip-AppMe-Admin-Platform-Icon-Notificaciones-2_3)">
    <g id="_992680" data-name="992680" transform="translate(16.488 16.469)">
      <g id="Grupo_18724" data-name="Grupo 18724" transform="translate(0 0)">
        <g id="Grupo_18723" data-name="Grupo 18723">
          <path id="Trazado_12174" data-name="Trazado 12174" d="M38.673,71.75h-29a3.224,3.224,0,0,1-3.223-3.223V10.518A3.224,3.224,0,0,1,9.668,7.3h29a3.223,3.223,0,0,0,0-6.446h-29A9.68,9.68,0,0,0,0,10.518V68.527A9.68,9.68,0,0,0,9.668,78.2h29a3.223,3.223,0,0,0,0-6.445Z" transform="translate(0 -0.85)" fill="#1580f7" stroke="#f5f7f9" stroke-width="0.2"/>
        </g>
      </g>
      <g id="Grupo_18726" data-name="Grupo 18726" transform="translate(25.782 16.114)">
        <g id="Grupo_18725" data-name="Grupo 18725">
          <path id="Trazado_12175" data-name="Trazado 12175" d="M220.961,127.429l-19.594-19.336a3.222,3.222,0,0,0-4.525,4.589l14,13.819H173.323a3.223,3.223,0,0,0,0,6.445h37.522l-14,13.819a3.222,3.222,0,1,0,4.525,4.589l19.594-19.336a3.221,3.221,0,0,0,0-4.589Z" transform="translate(-170.1 -107.165)" fill="#1580f7" stroke="#f5f7f9" stroke-width="0.2"/>
        </g>
      </g>
    </g>
  </g>
</svg>
