<svg xmlns="http://www.w3.org/2000/svg" xmlns:xlink="http://www.w3.org/1999/xlink" width="110" height="110" viewBox="0 0 110 110">
  <defs>
    <clipPath id="clip-AppMe-Admin-Platform-Icon-Repartidores-2">
      <rect width="110" height="110"/>
    </clipPath>
  </defs>
  <g id="AppMe-Admin-Platform-Icon-Repartidores-2" clip-path="url(#clip-AppMe-Admin-Platform-Icon-Repartidores-2)">
    <g id="_888520" data-name="888520" transform="translate(4 27)">
      <g id="Grupo_1793" data-name="Grupo 1793" transform="translate(21.545 0)">
        <g id="Grupo_1792" data-name="Grupo 1792">
          <path id="Trazado_3160" data-name="Trazado 3160" d="M143.966,127.206v-7.744h4.693a1.564,1.564,0,0,0,1.564-1.564v-9.387a1.565,1.565,0,0,0-1.564-1.564h-4.693a10.964,10.964,0,0,0-10.951-10.951,1.544,1.544,0,0,0-1.5,1.27,4.693,4.693,0,1,0-.059,6.9v5.266l-5.8,5.8a1.564,1.564,0,0,0-.458,1.106v12.516H109.547v-9.387a1.564,1.564,0,0,0-.563-1.2l-6.067-5.056h5.066a1.565,1.565,0,0,0,1.564-1.565v-3.129a7.832,7.832,0,0,0-7.822-7.822h-21.9A7.832,7.832,0,0,0,72,108.511v3.129a1.565,1.565,0,0,0,1.565,1.565H78.63l-6.067,5.056a1.565,1.565,0,0,0-.563,1.2V139.8a1.565,1.565,0,0,0,1.565,1.564h4.8a12.5,12.5,0,0,0,24.816,0h20.554a12.5,12.5,0,0,0,24.816,0h1.672a1.565,1.565,0,0,0,1.565-1.564A14.08,14.08,0,0,0,143.966,127.206Zm0-17.131h3.129v6.258h-3.129Zm-15.645-7.822a1.564,1.564,0,1,1,1.564-1.564A1.565,1.565,0,0,1,128.321,102.253Zm-35.983,1.564h9.387a4.693,4.693,0,0,1,4.693,4.693v1.565H92.338Zm-17.209,6.258v-1.565a4.693,4.693,0,0,1,4.693-4.693h9.387v6.258Zm15.645,39.112a9.4,9.4,0,0,1-9.246-7.822h3.21a6.228,6.228,0,0,0,12.071,0h3.21A9.4,9.4,0,0,1,90.774,149.187Zm-2.694-7.822h5.388a3.1,3.1,0,0,1-5.388,0Zm18.339-3.129H75.129V120.194l8.389-6.99H98.03l8.389,6.99Zm14.173,0H109.547v-6.258H122.88A13.973,13.973,0,0,0,120.591,138.236ZM134.579,99.28a7.835,7.835,0,0,1,6.258,7.666v1.564h-6.258Zm-6.258,17.7,5.341-5.341h7.175v14.443a14.033,14.033,0,0,0-3.129-.363h-3.129a13.977,13.977,0,0,0-6.258,1.486Zm7.822,32.206a9.4,9.4,0,0,1-9.246-7.822h3.21a6.228,6.228,0,0,0,12.072,0h3.21A9.4,9.4,0,0,1,136.143,149.187Zm-2.694-7.822h5.388a3.1,3.1,0,0,1-5.388,0Zm-9.711-3.129a10.969,10.969,0,0,1,10.84-9.387h3.129a10.969,10.969,0,0,1,10.84,9.387Z" transform="translate(-72 -95.992)" fill="#f5f7f9" stroke="#f5f7f9" stroke-width="0.5"/>
        </g>
      </g>
      <g id="Grupo_1795" data-name="Grupo 1795" transform="translate(0 40.679)">
        <g id="Grupo_1794" data-name="Grupo 1794">
          <rect id="Rectángulo_1410" data-name="Rectángulo 1410" width="18.416" height="3.129" fill="#f5f7f9" stroke="#f5f7f9" stroke-width="0.5"/>
        </g>
      </g>
      <g id="Grupo_1797" data-name="Grupo 1797" transform="translate(6.502 34.421)">
        <g id="Grupo_1796" data-name="Grupo 1796">
          <rect id="Rectángulo_1411" data-name="Rectángulo 1411" width="11.914" height="3.129" fill="#f5f7f9" stroke="#f5f7f9" stroke-width="0.5"/>
        </g>
      </g>
      <g id="Grupo_1802" data-name="Grupo 1802" transform="translate(10.265 28.163)">
        <g id="Grupo_1796-2" data-name="Grupo 1796">
          <rect id="Rectángulo_1411-2" data-name="Rectángulo 1411" width="8.151" height="3.129" fill="#f5f7f9" stroke="#f5f7f9" stroke-width="0.5"/>
        </g>
      </g>
      <g id="Grupo_1799" data-name="Grupo 1799" transform="translate(35.625 25.034)">
        <g id="Grupo_1798" data-name="Grupo 1798" transform="translate(0 0)">
          <rect id="Rectángulo_1412" data-name="Rectángulo 1412" width="9.387" height="3.129" fill="#f5f7f9" stroke="#f5f7f9" stroke-width="0.5"/>
        </g>
      </g>
      <g id="Grupo_1801" data-name="Grupo 1801" transform="translate(35.625 32.856)">
        <g id="Grupo_1800" data-name="Grupo 1800" transform="translate(0 0)">
          <rect id="Rectángulo_1413" data-name="Rectángulo 1413" width="9.387" height="3.129" fill="#f5f7f9" stroke="#f5f7f9" stroke-width="0.5"/>
        </g>
      </g>
    </g>
  </g>
</svg>
