<svg xmlns="http://www.w3.org/2000/svg" xmlns:xlink="http://www.w3.org/1999/xlink" width="110" height="110" viewBox="0 0 110 110">
  <defs>
    <clipPath id="clip-AppMe-Admin-Platform-Icon-Dashboard-1_1">
      <rect width="110" height="110"/>
    </clipPath>
  </defs>
  <g id="AppMe-Admin-Platform-Icon-Dashboard-1_1" data-name="AppMe-Admin-Platform-Icon-Dashboard-1 – 1" clip-path="url(#clip-AppMe-Admin-Platform-Icon-Dashboard-1_1)">
    <g id="_925748" data-name="925748" transform="translate(13.198 18.958)">
      <g id="Grupo_18752" data-name="Grupo 18752" transform="translate(0 0)">
        <g id="Grupo_18751" data-name="Grupo 18751" transform="translate(0 0)">
          <path id="Trazado_12185" data-name="Trazado 12185" d="M83.809,69.416h0L67.963,29.627a1.648,1.648,0,0,0-2.14-.922h0L1.537,54.3a1.614,1.614,0,0,0-.659.524A1.629,1.629,0,0,0,0,56.258V99.093a1.648,1.648,0,0,0,1.648,1.648h69.2a1.648,1.648,0,0,0,1.648-1.648V75.7l10.4-4.142A1.647,1.647,0,0,0,83.809,69.416ZM69.2,97.445H3.3V57.905H69.2ZM27.489,54.618,55.075,43.626A13.107,13.107,0,0,0,64.52,47.7l2.751,6.92Zm45,17.541v-15.9a1.648,1.648,0,0,0-1.648-1.648h-.026l-3.491-8.768a1.364,1.364,0,0,0-.135-.208,1.628,1.628,0,0,0-1.722-1.269,9.852,9.852,0,0,1-8.638-3.72,1.633,1.633,0,0,0-2.114-.369,1.85,1.85,0,0,0-.232.043L20.806,53.73a1.628,1.628,0,0,0-.9.88H9.674L65.512,32.377,80.14,69.108Z" transform="translate(0 -28.588)" fill="#49b166"/>
          <path id="Trazado_12186" data-name="Trazado 12186" d="M33.176,212.068a9.851,9.851,0,0,1,6.651,6.643,1.648,1.648,0,0,0,1.578,1.176,1.516,1.516,0,0,0,.254-.038,1.538,1.538,0,0,0,.226.046h39.54a1.417,1.417,0,0,0,.2-.041,1.534,1.534,0,0,0,1.853-1.128l0-.009a9.85,9.85,0,0,1,6.651-6.651,1.626,1.626,0,0,0,1.13-1.812,1.659,1.659,0,0,0,.048-.244V196.83a1.486,1.486,0,0,0-.049-.244,1.624,1.624,0,0,0-1.13-1.812,9.841,9.841,0,0,1-6.648-6.653,1.628,1.628,0,0,0-1.825-1.13,1.569,1.569,0,0,0-.232-.046H41.885a1.549,1.549,0,0,0-.245.049,1.628,1.628,0,0,0-1.812,1.13,9.851,9.851,0,0,1-6.651,6.649,1.626,1.626,0,0,0-1.13,1.812,1.663,1.663,0,0,0-.046.244v13.18a1.522,1.522,0,0,0,.046.229A1.631,1.631,0,0,0,33.176,212.068ZM35.3,197.5a13.073,13.073,0,0,0,7.259-7.259h38.2a13.077,13.077,0,0,0,7.261,7.259v11.842a13.088,13.088,0,0,0-7.259,7.259h-38.2a13.088,13.088,0,0,0-7.259-7.259Z" transform="translate(-25.41 -154.333)" fill="#49b166"/>
          <path id="Trazado_12187" data-name="Trazado 12187" d="M137.885,238.715A9.885,9.885,0,1,0,128,228.83,9.885,9.885,0,0,0,137.885,238.715Zm0-16.475a6.59,6.59,0,1,1-6.59,6.59A6.59,6.59,0,0,1,137.885,222.24Z" transform="translate(-101.64 -179.743)" fill="#49b166"/>
          <path id="Trazado_12188" data-name="Trazado 12188" d="M78.471,259.888A2.471,2.471,0,1,0,76,257.416,2.471,2.471,0,0,0,78.471,259.888Zm0-3.3a.824.824,0,1,1-.824.824A.824.824,0,0,1,78.471,256.592Z" transform="translate(-60.349 -208.329)" fill="#49b166"/>
          <path id="Trazado_12189" data-name="Trazado 12189" d="M254.471,259.888A2.471,2.471,0,1,0,252,257.416,2.471,2.471,0,0,0,254.471,259.888Zm0-3.3a.824.824,0,1,1-.824.824A.824.824,0,0,1,254.471,256.592Z" transform="translate(-200.103 -208.329)" fill="#49b166"/>
        </g>
      </g>
    </g>
  </g>
</svg>
